<svg width="25" height="26" viewBox="0 0 14 18" fill="none" xmlns="http://www.w3.org/2000/svg">
<path d="M12.53 8.2C12.3 7.9 12.03 7.64 11.77 7.38C11.12 6.78 10.37 6.35 9.74003 5.72C8.28003 4.26 7.96003 1.85 8.89003 0C7.99003 0.23 7.14003 0.75 6.44003 1.32C3.90003 3.4 2.90003 7.07 4.10003 10.22C4.14003 10.32 4.18003 10.42 4.18003 10.55C4.18003 10.77 4.03003 10.97 3.83003 11.05C3.61003 11.15 3.37003 11.09 3.19003 10.93C3.13003 10.88 3.09003 10.83 3.04003 10.76C1.94003 9.33 1.76003 7.28 2.51003 5.64C0.870029 7 2.83895e-05 9.3 0.120028 11.47C0.160028 11.97 0.220028 12.47 0.390028 12.97C0.530028 13.57 0.790029 14.17 1.11003 14.7C2.15003 16.43 3.98003 17.67 5.95003 17.92C8.05003 18.19 10.3 17.8 11.91 16.32C13.71 14.66 14.36 12.02 13.41 9.72L13.28 9.46C13.08 9.01 12.81 8.59 12.5 8.21L12.53 8.2ZM9.43003 14.5C9.15003 14.74 8.70003 15 8.35003 15.1C7.25003 15.48 6.15003 14.94 5.47003 14.28C6.67003 14 7.37003 13.12 7.57003 12.23C7.74003 11.43 7.43003 10.77 7.30003 10C7.18003 9.26 7.20003 8.63 7.50003 7.94C7.65003 8.32 7.85003 8.7 8.08003 9C8.84003 10 10.03 10.44 10.28 11.8C10.32 11.94 10.34 12.08 10.34 12.23C10.37 13.05 10.02 13.95 9.42003 14.49L9.43003 14.5Z" fill="white"/>
</svg>
