<svg xmlns="http://www.w3.org/2000/svg" viewBox="0 0 25 25" id="List"><path d="M12.5 0C5.602 0 0 5.602 0 12.5S5.602 25 12.5 25 25 19.398 25 12.5 19.398 0 12.5 0zm0 .969A11.519 11.519 0 0 1 24.031 12.5c0 6.378-5.153 11.563-11.531 11.563C6.122 24.063.969 18.878.969 12.5A11.519 11.519 0 0 1 12.5.969zM7 9v1h1V9H7zm2 0v1h9V9H9zm8.5 1.719L15.594 13H17v3h1v-3h1.406L17.5 10.719zM7 12v1h1v-1H7zm2 0v1h6v-1H9zm-2 3v1h1v-1H7zm2 0v1h5v-1H9z" color="#000" font-family="Sans" font-weight="400" overflow="visible" style="text-indent:0;text-align:start;line-height:normal;text-transform:none;block-progression:tb;marker:none;-inkscape-font-specification:Sans" fill="#939393" class="color000000 svgShape"></path></svg>