<svg xmlns="http://www.w3.org/2000/svg" viewBox="0 0 32 32" id="bluetooth"><path d="M16,3A13,13,0,1,0,29,16,13,13,0,0,0,16,3Zm0,24A11,11,0,1,1,27,16,11,11,0,0,1,16,27Z"></path><path d="M20.75,12.64s0,0,.05,0a.61.61,0,0,0,.05-.12.51.51,0,0,0,.09-.18,1.16,1.16,0,0,0,0-.18c0-.07,0-.13,0-.19a1.62,1.62,0,0,0,0-.19.85.85,0,0,0-.06-.17,1,1,0,0,0-.11-.17s0-.08-.07-.11l-.06,0s0,0,0-.05l-4-3-.1,0-.19-.09-.2,0L16,8h-.07l-.2,0-.17.06a.83.83,0,0,0-.15.11.7.7,0,0,0-.16.14s0,0-.05,0l0,.1-.09.19a1.18,1.18,0,0,0,0,.2S15,9,15,9v5l-2.4-1.8a1,1,0,1,0-1.2,1.6L14.33,16,11.4,18.2a1,1,0,0,0-.2,1.4,1,1,0,0,0,.8.4,1,1,0,0,0,.6-.2L15,18v5s0,.07,0,.11a1.18,1.18,0,0,0,0,.2l.09.19,0,.1s0,0,.05,0a1,1,0,0,0,.24.2.47.47,0,0,0,.09.06A1,1,0,0,0,16,24h0a1,1,0,0,0,.35-.07l.12-.06.13-.07,4-3,0-.05.06,0s0-.08.07-.11a1,1,0,0,0,.11-.17.85.85,0,0,0,.06-.17,1.62,1.62,0,0,0,0-.19c0-.06,0-.12,0-.19a1.16,1.16,0,0,0,0-.18.51.51,0,0,0-.09-.18.61.61,0,0,0-.05-.12l-.05,0,0-.06L17.41,16l3.3-3.29S20.73,12.66,20.75,12.64Zm-2.27-.53L17,13.59V11ZM17,18.41l1.48,1.48L17,21Z"></path></svg>