
<svg width="24" height="20" viewBox="0 0 24 20" fill="none" xmlns="http://www.w3.org/2000/svg">
<path fill-rule="evenodd" clip-rule="evenodd" d="M1.99988 7.89478C3.37019 7.89478 4.72709 8.15616 5.9931 8.66399C7.2591 9.17183 8.40943 9.91618 9.37838 10.8545C10.3473 11.7929 11.116 12.9069 11.6404 14.1329C12.1648 15.3589 12.4347 16.673 12.4347 18H10.6955C10.6955 16.8942 10.4706 15.7991 10.0336 14.7774C9.59662 13.7558 8.9561 12.8274 8.14863 12.0455C7.34117 11.2635 6.38257 10.6432 5.32756 10.22C4.27256 9.7968 3.14181 9.57899 1.99988 9.57899V7.89478Z" fill="white"/>
<path fill-rule="evenodd" clip-rule="evenodd" d="M1.99988 11.2631C2.91342 11.2631 3.81802 11.4373 4.66202 11.7759C5.50603 12.1144 6.27291 12.6107 6.91888 13.2362C7.56485 13.8618 8.07727 14.6045 8.42687 15.4218C8.77646 16.2392 8.9564 17.1152 8.9564 17.9999H7.21727C7.21727 17.3364 7.08232 16.6794 6.82012 16.0663C6.55792 15.4533 6.17361 14.8963 5.68913 14.4272C5.20465 13.958 4.62949 13.5858 3.99649 13.3319C3.36348 13.078 2.68504 12.9473 1.99988 12.9473V11.2631Z" fill="white"/>
<path fill-rule="evenodd" clip-rule="evenodd" d="M1.99988 18L1.99988 14.6316C2.45665 14.6316 2.90895 14.7187 3.33095 14.888C3.69325 15.0333 4.02712 15.2367 4.31872 15.4893C4.36677 15.531 4.41368 15.5739 4.45938 15.6182C4.50508 15.6624 4.54944 15.7078 4.59242 15.7544C4.85324 16.0368 5.0633 16.3601 5.21337 16.711C5.38817 17.1196 5.47814 17.5577 5.47814 18L1.99988 18Z" fill="white"/>
<path fill-rule="evenodd" clip-rule="evenodd" d="M1.99988 4.25641C1.99988 3.01023 3.04772 2 4.3403 2H19.6595C20.952 2 21.9999 3.01023 21.9999 4.25641V15.7436C21.9999 16.9898 20.952 18 19.6595 18H14.5531V16.7692H19.6595C20.247 16.7692 20.7233 16.31 20.7233 15.7436V4.25641C20.7233 3.68996 20.247 3.23077 19.6595 3.23077H4.3403C3.75277 3.23077 3.27647 3.68996 3.27647 4.25641V5.89744H1.99988V4.25641Z" fill="white"/>
</svg>
