<svg width="20" height="16" viewBox="0 0 20 16" fill="none" xmlns="http://www.w3.org/2000/svg">
<path fill-rule="evenodd" clip-rule="evenodd" d="M-0.00012207 2.51429C-0.00012207 1.12568 1.1452 0 2.55802 0H17.4417C18.8546 0 19.9999 1.12568 19.9999 2.51429V13.4857C19.9999 14.8743 18.8546 16 17.4417 16H2.55802C1.1452 16 -0.00012207 14.8743 -0.00012207 13.4857V2.51429ZM2.55802 1.37143C1.91583 1.37143 1.39523 1.8831 1.39523 2.51429V13.4857C1.39523 14.1169 1.91583 14.6286 2.55802 14.6286H17.4417C18.0839 14.6286 18.6045 14.1169 18.6045 13.4857V2.51429C18.6045 1.8831 18.0839 1.37143 17.4417 1.37143H2.55802Z" fill="white"/>
<path d="M8.77834 9.10829C8.70192 9.93895 8.40318 10.5878 7.88214 11.0548C7.3611 11.5183 6.66811 11.75 5.80318 11.75C5.19878 11.75 4.66558 11.6038 4.20359 11.3115C3.74507 11.0156 3.39076 10.5967 3.14066 10.0548C2.89056 9.51292 2.7603 8.88369 2.74988 8.16711V7.43984C2.74988 6.70544 2.87666 6.05838 3.13024 5.49866C3.38381 4.93895 3.74681 4.50758 4.21922 4.20455C4.6951 3.90152 5.24393 3.75 5.86571 3.75C6.70285 3.75 7.37673 3.98351 7.88735 4.45053C8.39797 4.91756 8.69497 5.57709 8.77834 6.42914H7.46531C7.40278 5.86943 7.243 5.46658 6.98595 5.22059C6.73238 4.97103 6.35896 4.84626 5.86571 4.84626C5.29256 4.84626 4.85141 5.06194 4.54226 5.49332C4.23658 5.92112 4.08027 6.55036 4.07332 7.38102V8.07086C4.07332 8.91221 4.21922 9.55392 4.511 9.99599C4.80626 10.4381 5.23699 10.6591 5.80318 10.6591C6.32075 10.6591 6.7098 10.5397 6.97032 10.3008C7.23084 10.0619 7.39584 9.66444 7.46531 9.10829H8.77834Z" fill="white"/>
<path d="M15.7499 9.10829C15.6735 9.93895 15.3747 10.5878 14.8537 11.0548C14.3326 11.5183 13.6397 11.75 12.7747 11.75C12.1703 11.75 11.6371 11.6038 11.1751 11.3115C10.7166 11.0156 10.3623 10.5967 10.1122 10.0548C9.8621 9.51292 9.73184 8.88369 9.72142 8.16711V7.43984C9.72142 6.70544 9.84821 6.05838 10.1018 5.49866C10.3554 4.93895 10.7183 4.50758 11.1908 4.20455C11.6666 3.90152 12.2155 3.75 12.8373 3.75C13.6744 3.75 14.3483 3.98351 14.8589 4.45053C15.3695 4.91756 15.6665 5.57709 15.7499 6.42914H14.4369C14.3743 5.86943 14.2145 5.46658 13.9575 5.22059C13.7039 4.97103 13.3305 4.84626 12.8373 4.84626C12.2641 4.84626 11.823 5.06194 11.5138 5.49332C11.2081 5.92112 11.0518 6.55036 11.0449 7.38102V8.07086C11.0449 8.91221 11.1908 9.55392 11.4825 9.99599C11.7778 10.4381 12.2085 10.6591 12.7747 10.6591C13.2923 10.6591 13.6813 10.5397 13.9419 10.3008C14.2024 10.0619 14.3674 9.66444 14.4369 9.10829H15.7499Z" fill="white"/>
</svg>
