<svg xmlns="http://www.w3.org/2000/svg" viewBox="0 0 48.6 48.6" id="Create"><rect width="46.6" height="46.6" x="1" y="1" fill="none" stroke="#ffffff" stroke-miterlimit="10" stroke-width="2" rx="6.57" class="colorStroke231f20 svgStroke"></rect><path fill="none" stroke="#ffffff" stroke-linecap="round" stroke-linejoin="round" stroke-width="2" d="M39.81 39.67H11.35a2.56 2.56 0 0 1-2.56-2.56V8.64" class="colorStroke231f20 svgStroke"></path><rect width="6.5" height="4.38" x="612" y="871.25" fill="none" stroke="#ffffff" stroke-linecap="round" stroke-linejoin="round" stroke-width="2" rx="1.49" transform="rotate(45 1365.703 -255.937)" class="colorStroke231f20 svgStroke"></rect><path fill="none" stroke="#ffffff" stroke-linecap="round" stroke-linejoin="round" stroke-width="2" d="m29.49 14.37-11.4 11.4a1.45 1.45 0 0 0-.42 1v2.85a1.14 1.14 0 0 0 1.14 1.14h2.85a1.45 1.45 0 0 0 1-.43l11.4-11.39a1.47 1.47 0 0 0 0-2.06l-2.54-2.54a1.45 1.45 0 0 0-2.03.03ZM12.55 30.79H28.3" class="colorStroke231f20 svgStroke"></path></svg>