<svg xmlns="http://www.w3.org/2000/svg" enable-background="new 0 0 64 64" viewBox="0 0 64 64" id="HalfShape"><path fill="#808080" d="M54.84 50.08H15.35c-.79 0-1.43-.64-1.43-1.43 0-.79.64-1.43 1.43-1.43h39.48c.79 0 1.43.64 1.43 1.43C56.27 49.44 55.63 50.08 54.84 50.08zM54.84 41.32H24.12c-.79 0-1.43-.64-1.43-1.43s.64-1.43 1.43-1.43h30.72c.79 0 1.43.64 1.43 1.43S55.63 41.32 54.84 41.32zM54.84 31.7h-21.1c-.79 0-1.43-.64-1.43-1.43s.64-1.43 1.43-1.43h21.1c.79 0 1.43.64 1.43 1.43S55.63 31.7 54.84 31.7zM54.84 22.21H43.22c-.79 0-1.43-.64-1.43-1.43s.64-1.43 1.43-1.43h11.62c.79 0 1.43.64 1.43 1.43S55.63 22.21 54.84 22.21z" class="colorff0000 svgShape"></path><path fill="#939393" d="M62.57,64H1.43C0.64,64,0,63.36,0,62.57V1.43C0,0.64,0.64,0,1.43,0h61.13C63.36,0,64,0.64,64,1.43v61.13
		C64,63.36,63.36,64,62.57,64z M2.87,61.13h58.27V2.87H2.87V61.13z" class="color2d2d2d svgShape"></path><path fill="#939393" d="M1.43,64c-0.37,0-0.73-0.14-1.01-0.42c-0.56-0.56-0.56-1.47,0-2.03L61.55,0.42c0.56-0.56,1.47-0.56,2.03,0
		c0.56,0.56,0.56,1.47,0,2.03L2.45,63.58C2.17,63.86,1.8,64,1.43,64z" class="color2d2d2d svgShape"></path></svg>