<svg xmlns="http://www.w3.org/2000/svg" fill="none" viewBox="0 0 24 24" id="BlockedAccount"><path stroke="#939393" stroke-linecap="round" stroke-linejoin="round" d="M17 20.6622C15.5291 21.513 13.8214 22 12 22C6.47715 22 2 17.5228 2 12C2 10.1786 2.48697 8.47087 3.33782 7M19.1414 19C20.9097 17.1962 22 14.7255 22 12C22 6.47715 17.5228 2 12 2C9.27455 2 6.80375 3.09032 5 4.85857" class="colorStroke000000 svgStroke"></path><path stroke="#939393" stroke-linecap="round" stroke-linejoin="round" d="M12 12C13.6569 12 15 10.6569 15 9 15 7.34315 13.6569 6 12 6 10.3431 6 9 7.34315 9 9M5.2041 19.3165C5.83966 16.7422 7.89968 14.729 10.5 14.1612M2 2L22 22" class="colorStroke000000 svgStroke"></path></svg>