<svg xmlns="http://www.w3.org/2000/svg" viewBox="0 0 32 32" id="play"><path d="M16,1C7.729,1,1,7.729,1,16s6.729,15,15,15,15-6.729,15-15S24.271,1,16,1Zm0,28c-7.168,0-13-5.832-13-13S8.832,3,16,3s13,5.832,13,13-5.832,13-13,13Zm5.696-14.758l-6.328-4.867c-.752-.579-1.797-.678-2.659-.253-.796,.392-1.291,1.163-1.291,2.011v9.734c0,.848,.495,1.619,1.291,2.011,.356,.175,.743,.262,1.128,.262,.547,0,1.09-.175,1.531-.515l6.328-4.867c.563-.433,.886-1.074,.886-1.758s-.322-1.326-.886-1.758Zm-1.219,1.932l-6.328,4.867c-.188,.144-.416,.112-.557,.043-.08-.039-.175-.108-.175-.217V11.133c0-.108,.095-.178,.175-.217,.068-.034,.157-.058,.252-.058,.101,0,.208,.028,.305,.102l6.328,4.867c.048,.037,.104,.097,.104,.173s-.057,.136-.104,.173Z" fill="#939393" class="color000000 svgShape"></path></svg>