<svg xmlns="http://www.w3.org/2000/svg" viewBox="0 0 24 24" id="MusicNote"><defs><linearGradient id="a" x1="-9.87" x2="32.91" y1="-10.17" y2="32.61" gradientUnits="userSpaceOnUse"><stop offset="0" stop-color="#cbcbcb" class="stopColor9cecfb svgShape"></stop><stop offset=".51" stop-color="#939393" class="stopColor65c7f7 svgShape"></stop><stop offset="1" stop-color="#6a6a6a" class="stopColor0052d4 svgShape"></stop></linearGradient></defs><path fill="url(#a)" d="M5,23a4,4,0,0,1,0-8,3.89,3.89,0,0,1,2,.54V5.42a3,3,0,0,1,2.58-3L19.58,1A3,3,0,0,1,23,4V17a4,4,0,1,1-4-4,3.89,3.89,0,0,1,2,.54V4a1,1,0,0,0-1.14-1l-10,1.42a1,1,0,0,0-.86,1V19A4,4,0,0,1,5,23Zm0-6a2,2,0,1,0,2,2A2,2,0,0,0,5,17Zm14-2a2,2,0,1,0,2,2A2,2,0,0,0,19,15ZM12,8.16a1,1,0,0,1-1-.86,1,1,0,0,1,.85-1.13l6-.86A1,1,0,0,1,19,6.16a1,1,0,0,1-.85,1.13l-6,.86Z"></path></svg>