<svg xmlns="http://www.w3.org/2000/svg" fill-rule="evenodd" stroke-linejoin="round" stroke-miterlimit="2" clip-rule="evenodd" viewBox="0 0 32 32" id="Bookmark"><path d="M27,6c0,-1.326 -0.527,-2.598 -1.464,-3.536c-0.938,-0.937 -2.21,-1.464 -3.536,-1.464c-3.486,0 -8.514,0 -12,0c-1.326,-0 -2.598,0.527 -3.536,1.464c-0.937,0.938 -1.464,2.21 -1.464,3.536c0,7.738 0,24 0,24c0,0.404 0.244,0.769 0.617,0.924c0.374,0.155 0.804,0.069 1.09,-0.217l9.293,-9.293c0,0 9.293,9.293 9.293,9.293c0.286,0.286 0.716,0.372 1.09,0.217c0.373,-0.155 0.617,-0.52 0.617,-0.924l-0,-24Zm-2,0l-0,21.586c0,-0 -8.293,-8.293 -8.293,-8.293c-0.39,-0.391 -1.024,-0.391 -1.414,-0l-8.293,8.293c0,-0 0,-21.586 0,-21.586c-0,-0.796 0.316,-1.559 0.879,-2.121c0.562,-0.563 1.325,-0.879 2.121,-0.879c3.486,0 8.514,0 12,-0c0.796,-0 1.559,0.316 2.121,0.879c0.563,0.562 0.879,1.325 0.879,2.121Z" fill="#939393" class="color000000 svgShape"></path></svg>