<svg width="36" height="36" viewBox="0 0 36 36" fill="none" xmlns="http://www.w3.org/2000/svg">
<path d="M32.6689 16.0796L12.4233 3.70675C12.0823 3.49822 11.6919 3.38431 11.2923 3.37675C10.8926 3.36918 10.4982 3.46824 10.1495 3.66371C9.80085 3.85919 9.51056 4.14403 9.30853 4.48894C9.10649 4.83384 9 5.22634 9 5.62606V30.3739C9.00033 30.7735 9.10703 31.1658 9.30914 31.5105C9.51125 31.8552 9.80149 32.1398 10.15 32.3353C10.4986 32.5307 10.8929 32.6298 11.2924 32.6224C11.6919 32.615 12.0823 32.5014 12.4233 32.2932L32.6689 19.9204C32.9978 19.7193 33.2696 19.437 33.4581 19.1008C33.6466 18.7645 33.7456 18.3855 33.7456 18C33.7456 17.6145 33.6466 17.2354 33.4581 16.8991C33.2696 16.5629 32.9978 16.2807 32.6689 16.0796Z" fill="white"/>
</svg>
