<svg xmlns="http://www.w3.org/2000/svg" enable-background="new 0 0 48 48" viewBox="0 0 48 48" id="Handholdingdollar"><path d="M31.3 5.8h-.5V4.6h-2v1.2h-.5c-1.3 0-2.3 1-2.3 2.3v1.4c0 1.3 1 2.3 2.3 2.3h3.1c.2 0 .3.1.3.3v1.4c0 .2-.1.3-.3.3h-3.1c-.2 0-.3-.1-.3-.3v-.7h-2v.7c0 1.3 1 2.3 2.3 2.3h.5v1.2h2v-1.2h.5c1.3 0 2.3-1 2.3-2.3v-1.4c0-1.3-1-2.3-2.3-2.3h-3.1c-.2 0-.3-.1-.3-.3V8.1c0-.2.1-.3.3-.3h3.1c.2 0 .3.1.3.3v.7h2V8.1C33.6 6.8 32.5 5.8 31.3 5.8zM14 41.9l16 0c.7 0 1.3-.2 1.9-.5L45.7 33c1.7-1 2.3-3.3 1.3-5-.5-.8-1.3-1.4-2.3-1.7-1-.2-1.9-.1-2.8.4l-11.3 6.8c.6-.6.9-1.5.9-2.4 0-2-1.6-3.7-3.7-3.7H14v-2H.5v22.1H14V41.9zM27.9 29.4c.9 0 1.7.7 1.7 1.7s-.7 1.7-1.7 1.7h-6.1v3.8h7.6L43 28.4c.4-.2.8-.3 1.3-.2.4.1.8.4 1 .8v0c.5.8.2 1.8-.6 2.3l-13.9 8.4c-.3.2-.6.2-.9.2H14V29.4H27.9zM12 45.5H2.5V27.4H12v0 14.5V45.5z" fill="#ffffff" class="color000000 svgShape"></path><rect width="2" height="5.1" x="6.2" y="37.7" fill="#ffffff" class="color000000 svgShape"></rect><path d="M12,21.2h35.5V0.5H12V21.2z M14,2.5h31.5v16.7H14V2.5z" fill="#ffffff" class="color000000 svgShape"></path><path d="M40.1,9.3c-0.8,0-1.5,0.7-1.5,1.5c0,0.8,0.7,1.5,1.5,1.5c0.8,0,1.5-0.7,1.5-1.5C41.7,10,41,9.3,40.1,9.3z" fill="#ffffff" class="color000000 svgShape"></path><circle cx="19.3" cy="10.8" r="1.5" fill="#ffffff" class="color000000 svgShape"></circle></svg>