<svg width="31" height="31" viewBox="0 0 24 24" fill="white" xmlns="http://www.w3.org/2000/svg">
<path fill-rule="evenodd" clip-rule="evenodd" d="M6.05583 7.24555C4.14266 8.35012 3.48715 10.7965 4.59172 12.7097C4.96612 13.3581 5.49505 13.8622 6.10477 14.2021L5.80584 14.3747C3.89267 15.4793 3.23717 17.9257 4.34174 19.8388C5.44631 21.752 7.89267 22.4075 9.80584 21.3029L17.6001 16.8029C19.5132 15.6984 20.1687 13.252 19.0642 11.3388C18.6898 10.6904 18.1608 10.1863 17.5511 9.84634L17.8501 9.67375C19.7632 8.56918 20.4187 6.12282 19.3142 4.20965C18.2096 2.29648 15.7632 1.64098 13.8501 2.74555L6.05583 7.24555ZM10.5002 14.5979L15.0002 11.9999L10.5002 9.40178L10.5002 14.5979Z" fill=""/>
<path fill-rule="evenodd" clip-rule="evenodd" d="M10.5 14.598L15 11.9999L10.5 9.40186L10.5 14.598Z" fill="white"/>
</svg>
