<svg width="4" height="16" viewBox="0 0 4 16" fill="none" xmlns="http://www.w3.org/2000/svg">
<path d="M1.99988 12.5C2.82988 12.5 3.49988 13.17 3.49988 14C3.49988 14.83 2.82988 15.5 1.99988 15.5C1.16988 15.5 0.499878 14.83 0.499878 14C0.499878 13.17 1.16988 12.5 1.99988 12.5ZM0.499878 8C0.499878 8.83 1.16988 9.5 1.99988 9.5C2.82988 9.5 3.49988 8.83 3.49988 8C3.49988 7.17 2.82988 6.5 1.99988 6.5C1.16988 6.5 0.499878 7.17 0.499878 8ZM0.499878 2C0.499878 2.83 1.16988 3.5 1.99988 3.5C2.82988 3.5 3.49988 2.83 3.49988 2C3.49988 1.17 2.82988 0.5 1.99988 0.5C1.16988 0.5 0.499878 1.17 0.499878 2Z" fill="white"/>
</svg>
