<svg width="46" height="20" viewBox="0 0 46 20" fill="none" xmlns="http://www.w3.org/2000/svg">
<rect width="46" height="20" rx="3" fill="white"/>
<path d="M16.5254 7.10645L14.5918 13H13.0342L15.6758 5.89062H16.667L16.5254 7.10645ZM18.1318 13L16.1934 7.10645L16.0371 5.89062H17.0381L19.6943 13H18.1318ZM18.0439 10.3535V11.501H14.2891V10.3535H18.0439ZM22.5361 13H20.9883L20.998 11.8574H22.5361C22.9202 11.8574 23.2441 11.7712 23.5078 11.5986C23.7715 11.4229 23.9701 11.1673 24.1035 10.832C24.2402 10.4967 24.3086 10.0915 24.3086 9.61621V9.26953C24.3086 8.90495 24.2695 8.58431 24.1914 8.30762C24.1165 8.03092 24.0042 7.79818 23.8545 7.60938C23.7048 7.42057 23.5208 7.27897 23.3027 7.18457C23.0846 7.08691 22.834 7.03809 22.5508 7.03809H20.959V5.89062H22.5508C23.026 5.89062 23.4606 5.97201 23.8545 6.13477C24.2516 6.29427 24.5951 6.52376 24.8848 6.82324C25.1745 7.12272 25.3975 7.48079 25.5537 7.89746C25.7132 8.31087 25.793 8.77148 25.793 9.2793V9.61621C25.793 10.1208 25.7132 10.5814 25.5537 10.998C25.3975 11.4147 25.1745 11.7728 24.8848 12.0723C24.5983 12.3685 24.2549 12.598 23.8545 12.7607C23.4574 12.9202 23.0179 13 22.5361 13ZM21.8184 5.89062V13H20.3535V5.89062H21.8184ZM30.5586 11.1396C30.5586 11.0127 30.5391 10.8988 30.5 10.7979C30.4642 10.6937 30.3958 10.5993 30.2949 10.5146C30.194 10.4268 30.0524 10.3405 29.8701 10.2559C29.6878 10.1712 29.4518 10.0833 29.1621 9.99219C28.8398 9.88802 28.5339 9.77083 28.2441 9.64062C27.9577 9.51042 27.7038 9.35905 27.4824 9.18652C27.2643 9.01074 27.0918 8.80729 26.9648 8.57617C26.8411 8.34505 26.7793 8.0765 26.7793 7.77051C26.7793 7.47428 26.8444 7.20573 26.9746 6.96484C27.1048 6.7207 27.2871 6.51237 27.5215 6.33984C27.7559 6.16406 28.0326 6.02897 28.3516 5.93457C28.6738 5.84017 29.027 5.79297 29.4111 5.79297C29.9352 5.79297 30.3926 5.88737 30.7832 6.07617C31.1738 6.26497 31.4766 6.52376 31.6914 6.85254C31.9095 7.18132 32.0186 7.55729 32.0186 7.98047H30.5635C30.5635 7.77214 30.5195 7.58984 30.4316 7.43359C30.347 7.27409 30.2168 7.14876 30.041 7.05762C29.8685 6.96647 29.6504 6.9209 29.3867 6.9209C29.1328 6.9209 28.9212 6.95996 28.752 7.03809C28.5827 7.11296 28.4557 7.21549 28.3711 7.3457C28.2865 7.47266 28.2441 7.61589 28.2441 7.77539C28.2441 7.89583 28.2734 8.00488 28.332 8.10254C28.3939 8.2002 28.485 8.29134 28.6055 8.37598C28.7259 8.46061 28.874 8.54036 29.0498 8.61523C29.2256 8.6901 29.429 8.76335 29.6602 8.83496C30.0475 8.95215 30.3877 9.08398 30.6807 9.23047C30.9769 9.37695 31.2243 9.54134 31.4229 9.72363C31.6214 9.90592 31.7712 10.1126 31.8721 10.3438C31.973 10.5749 32.0234 10.8369 32.0234 11.1299C32.0234 11.4391 31.9632 11.7158 31.8428 11.96C31.7223 12.2041 31.5482 12.4108 31.3203 12.5801C31.0924 12.7493 30.8206 12.8779 30.5049 12.9658C30.1891 13.0537 29.8359 13.0977 29.4453 13.0977C29.0938 13.0977 28.7471 13.0521 28.4053 12.9609C28.0635 12.8665 27.7526 12.7249 27.4727 12.5361C27.196 12.3473 26.9746 12.1064 26.8086 11.8135C26.6426 11.5205 26.5596 11.1738 26.5596 10.7734H28.0293C28.0293 10.9948 28.0635 11.182 28.1318 11.335C28.2002 11.488 28.2962 11.6117 28.4199 11.7061C28.5469 11.8005 28.6966 11.8688 28.8691 11.9111C29.0449 11.9535 29.237 11.9746 29.4453 11.9746C29.6992 11.9746 29.9076 11.9388 30.0703 11.8672C30.2363 11.7956 30.3584 11.6963 30.4365 11.5693C30.5179 11.4424 30.5586 11.2992 30.5586 11.1396Z" fill="black"/>
</svg>
