<svg xmlns="http://www.w3.org/2000/svg" fill="none" viewBox="0 0 64 64" id="Bell"><path fill="#ffffff" fill-rule="evenodd" d="M21.125 20.408c-.28.753-.564 1.513-.865 2.24-.221.534-.468 1.41-.757 2.577-.164.665-.335 1.392-.518 2.173-.136.579-.28 1.188-.432 1.823-.585 2.434-1.293 5.179-2.202 7.661 12.43-.817 24.638 1.31 30.48 2.796-.24-5.025-.497-11.629-.532-16.983-.024-3.62-1.589-6.619-3.72-8.78-2.149-2.181-4.808-3.442-6.898-3.643-6.088-.584-9.233 1.108-11.196 3.463-1.017 1.22-1.76 2.668-2.408 4.219a64.987 64.987 0 0 0-.952 2.454zm1.823-7.953c2.471-2.964 6.32-4.808 12.924-4.174 2.639.253 5.715 1.778 8.132 4.23 2.435 2.47 4.267 5.95 4.295 10.17.038 5.814.34 13.132.597 18.269a1 1 0 0 1-1.274 1.011c-5.157-1.476-18.98-4.151-32.698-2.965a1 1 0 0 1-1.007-1.386c1.131-2.67 1.986-5.92 2.692-8.856.146-.61.287-1.212.424-1.792.186-.795.363-1.547.529-2.218.285-1.153.563-2.169.85-2.861.288-.694.56-1.423.844-2.186l.033-.088c.294-.789.602-1.61.943-2.426.68-1.63 1.515-3.287 2.716-4.728zm13.645 37.104a1 1 0 0 1 .22.874c-.284 1.274-1.025 3.129-2.361 4.616-1.364 1.518-3.383 2.678-6.107 2.358-2.698-.317-4.46-1.846-5.532-3.568-1.055-1.694-1.471-3.603-1.537-4.874a1 1 0 0 1 1.174-1.036c1.525.27 4.035.66 6.585.949 2.574.29 5.108.468 6.724.34a1 1 0 0 1 .834.341zm-13.14.568c.184.836.518 1.789 1.057 2.654.824 1.323 2.098 2.408 4.068 2.64 1.945.228 3.358-.564 4.386-1.709.675-.75 1.168-1.64 1.496-2.452-1.663-.005-3.693-.173-5.65-.395-1.943-.22-3.861-.497-5.358-.739z" clip-rule="evenodd" class="color000000 svgShape"></path><path fill="#ffffff" fill-rule="evenodd" d="M31.021 39.21c-6.17-.593-14.954-.382-19.318-.22a2.024 2.024 0 0 0-1.934 1.844 2.048 2.048 0 0 0 1.704 2.225c4.357.711 12.843 2.037 18.927 2.62 6.085.584 14.668.896 19.08 1.027a2.048 2.048 0 0 0 2.097-1.86 2.025 2.025 0 0 0-1.549-2.18c-4.253-.988-12.836-2.865-19.007-3.457zM11.63 36.99c4.357-.16 13.263-.378 19.582.228 6.32.607 15.021 2.513 19.269 3.5a4.024 4.024 0 0 1 3.087 4.319 4.048 4.048 0 0 1-4.147 3.668c-4.41-.13-13.053-.444-19.212-1.035-6.158-.59-14.703-1.926-19.058-2.637a4.048 4.048 0 0 1-3.373-4.39 4.024 4.024 0 0 1 3.852-3.653zM33.528 6.66c-.353.276-.458.627-.466.802a1 1 0 0 1-1.998-.096c.034-.7.377-1.612 1.23-2.28.87-.682 2.144-1.016 3.868-.794 1.808.232 2.915 1.072 3.383 2.24.43 1.07.224 2.192-.056 2.885a1 1 0 1 1-1.854-.749c.16-.395.229-.955.053-1.392-.136-.342-.513-.837-1.781-1-1.352-.174-2.042.12-2.38.384zm-15.772 4.096a1 1 0 0 1-.362 1.367c-2.192 1.273-7.097 6.695-6.793 17.686a1 1 0 0 1-2 .055c-.32-11.594 4.86-17.769 7.788-19.47a1 1 0 0 1 1.367.362zm33.279 3.547a1 1 0 0 1 1.346-.433c2.618 1.344 6.083 6.75 3.8 17.818a1 1 0 0 1-1.96-.404c2.208-10.696-1.316-14.897-2.753-15.635a1 1 0 0 1-.433-1.346z" clip-rule="evenodd" class="color000000 svgShape"></path></svg>