<svg width="16" height="17" viewBox="0 0 16 17" fill="none" xmlns="http://www.w3.org/2000/svg">
<path d="M6.53338 7.49492L3.98004 12.9816L9.46671 10.4283L12.02 4.94159L6.53338 7.49492ZM8.72004 9.47492C8.58004 9.66826 8.38004 9.79492 8.14671 9.83492C8.10004 9.84159 8.04671 9.84826 8.00004 9.84826C7.81338 9.84826 7.64004 9.79492 7.48671 9.68159C7.29338 9.54159 7.16671 9.34159 7.12671 9.10826C7.08671 8.87492 7.14004 8.63492 7.28004 8.44826C7.42004 8.25492 7.62004 8.12826 7.85338 8.08826C8.08671 8.04826 8.32004 8.10159 8.51338 8.24159C8.70671 8.38159 8.83338 8.58159 8.87338 8.81492C8.91338 9.04826 8.86004 9.28159 8.72004 9.47492ZM8.00004 2.96159C11.3067 2.96159 14 5.65492 14 8.96159C14 12.2683 11.3067 14.9616 8.00004 14.9616C4.69337 14.9616 2.00004 12.2683 2.00004 8.96159C2.00004 5.65492 4.69337 2.96159 8.00004 2.96159ZM8.00004 2.29492C4.32004 2.29492 1.33337 5.28159 1.33337 8.96159C1.33337 12.6416 4.32004 15.6283 8.00004 15.6283C11.68 15.6283 14.6667 12.6416 14.6667 8.96159C14.6667 5.28159 11.68 2.29492 8.00004 2.29492Z" fill="white"/>
</svg>
