<svg xmlns="http://www.w3.org/2000/svg" viewBox="0 0 64 64" id="Dustbin"><rect width="10" height="3" x="27" y="5" fill="#ffffff" class="color000000 svgShape"></rect><path d="M21,48V58a1,1,0,0,1-1,1H18a1,1,0,0,1-1-1V48a1,1,0,0,1,1-1h2A1,1,0,0,1,21,48Z" fill="#ffffff" class="color000000 svgShape"></path><path d="M27.42,38l-1.94,1.94A23.33,23.33,0,0,0,33.35,38Zm-3.36.52L26,36.58V30.65A23.33,23.33,0,0,0,24.06,38.52ZM27.42,38l-1.94,1.94A23.33,23.33,0,0,0,33.35,38Zm-3.36.52L26,36.58V30.65A23.33,23.33,0,0,0,24.06,38.52ZM31.42,34l-2,2h7.09a10.41,10.41,0,0,0,.78-.71A12.32,12.32,0,0,0,38.41,34Zm-4,4-1.94,1.94A23.33,23.33,0,0,0,33.35,38Zm-3.36.52L26,36.58V30.65A23.33,23.33,0,0,0,24.06,38.52Zm0,0L26,36.58V30.65A23.33,23.33,0,0,0,24.06,38.52ZM31.42,34l-2,2h7.09a10.41,10.41,0,0,0,.78-.71A12.32,12.32,0,0,0,38.41,34Zm-4,4-1.94,1.94A23.33,23.33,0,0,0,33.35,38Zm-3.36.52L26,36.58V30.65A23.33,23.33,0,0,0,24.06,38.52Zm0,0L26,36.58V30.65A23.33,23.33,0,0,0,24.06,38.52ZM31.42,34l-2,2h7.09a10.41,10.41,0,0,0,.78-.71A12.32,12.32,0,0,0,38.41,34Zm-4,4-1.94,1.94A23.33,23.33,0,0,0,33.35,38Zm-3.36.52L26,36.58V30.65A23.33,23.33,0,0,0,24.06,38.52Zm0,0L26,36.58V30.65A23.33,23.33,0,0,0,24.06,38.52ZM31.42,34l-2,2h7.09a10.41,10.41,0,0,0,.78-.71A12.32,12.32,0,0,0,38.41,34Zm-4,4-1.94,1.94A23.33,23.33,0,0,0,33.35,38ZM32,24.32v6.26l2-2V23.44A17.61,17.61,0,0,0,32,24.32Zm4-1.51v3.77l4.52-4.52A26.93,26.93,0,0,0,36,22.81Zm-7.29,3.9a10.41,10.41,0,0,0-.71.78v7.09l2-2v-7A12.32,12.32,0,0,0,28.71,26.71ZM24.06,38.52,26,36.58V30.65A23.33,23.33,0,0,0,24.06,38.52Zm0,0L26,36.58V30.65A23.33,23.33,0,0,0,24.06,38.52ZM37.42,28h3.77a26.93,26.93,0,0,0,.75-4.52Zm-6,6-2,2h7.09a10.41,10.41,0,0,0,.78-.71A12.32,12.32,0,0,0,38.41,34Zm-4,4-1.94,1.94A23.33,23.33,0,0,0,33.35,38Zm8-8-2,2h6.26a17.61,17.61,0,0,0,.88-2ZM32,24.32v6.26l2-2V23.44A17.61,17.61,0,0,0,32,24.32Zm4-1.51v3.77l4.52-4.52A26.93,26.93,0,0,0,36,22.81Zm-7.29,3.9a10.41,10.41,0,0,0-.71.78v7.09l2-2v-7A12.32,12.32,0,0,0,28.71,26.71ZM24.06,38.52,26,36.58V30.65A23.33,23.33,0,0,0,24.06,38.52Zm0,0L26,36.58V30.65A23.33,23.33,0,0,0,24.06,38.52ZM37.42,28h3.77a26.93,26.93,0,0,0,.75-4.52Zm-6,6-2,2h7.09a10.41,10.41,0,0,0,.78-.71A12.32,12.32,0,0,0,38.41,34Zm-4,4-1.94,1.94A23.33,23.33,0,0,0,33.35,38Zm8-8-2,2h6.26a17.61,17.61,0,0,0,.88-2ZM32,24.32v6.26l2-2V23.44A17.61,17.61,0,0,0,32,24.32Zm4-1.51v3.77l4.52-4.52A26.93,26.93,0,0,0,36,22.81Zm-7.29,3.9a10.41,10.41,0,0,0-.71.78v7.09l2-2v-7A12.32,12.32,0,0,0,28.71,26.71ZM24.06,38.52,26,36.58V30.65A23.33,23.33,0,0,0,24.06,38.52Zm0,0L26,36.58V30.65A23.33,23.33,0,0,0,24.06,38.52Zm4.65-11.81a10.41,10.41,0,0,0-.71.78v7.09l2-2v-7A12.32,12.32,0,0,0,28.71,26.71ZM32,24.32v6.26l2-2V23.44A17.61,17.61,0,0,0,32,24.32Zm4-1.51v3.77l4.52-4.52A26.93,26.93,0,0,0,36,22.81ZM37.42,28h3.77a26.93,26.93,0,0,0,.75-4.52Zm-6,6-2,2h7.09a10.41,10.41,0,0,0,.78-.71A12.32,12.32,0,0,0,38.41,34Zm-4,4-1.94,1.94A23.33,23.33,0,0,0,33.35,38Zm8-8-2,2h6.26a17.61,17.61,0,0,0,.88-2ZM36,22.81v3.77l4.52-4.52A26.93,26.93,0,0,0,36,22.81Zm-4,1.51v6.26l2-2V23.44A17.61,17.61,0,0,0,32,24.32Zm-3.29,2.39a10.41,10.41,0,0,0-.71.78v7.09l2-2v-7A12.32,12.32,0,0,0,28.71,26.71ZM24.06,38.52,26,36.58V30.65A23.33,23.33,0,0,0,24.06,38.52Zm0,0L26,36.58V30.65A23.33,23.33,0,0,0,24.06,38.52Zm4.65-11.81a10.41,10.41,0,0,0-.71.78v7.09l2-2v-7A12.32,12.32,0,0,0,28.71,26.71ZM32,24.32v6.26l2-2V23.44A17.61,17.61,0,0,0,32,24.32Zm4-1.51v3.77l4.52-4.52A26.93,26.93,0,0,0,36,22.81ZM35.42,30l-2,2h6.26a17.61,17.61,0,0,0,.88-2Zm2-2h3.77a26.93,26.93,0,0,0,.75-4.52Zm0,0h3.77a26.93,26.93,0,0,0,.75-4.52Zm-2,2-2,2h6.26a17.61,17.61,0,0,0,.88-2ZM36,22.81v3.77l4.52-4.52A26.93,26.93,0,0,0,36,22.81ZM31.42,34l-2,2h7.09a10.41,10.41,0,0,0,.78-.71A12.32,12.32,0,0,0,38.41,34ZM32,24.32v6.26l2-2V23.44A17.61,17.61,0,0,0,32,24.32ZM27.42,38l-1.94,1.94A23.33,23.33,0,0,0,33.35,38Zm1.29-11.29a10.41,10.41,0,0,0-.71.78v7.09l2-2v-7A12.32,12.32,0,0,0,28.71,26.71ZM24.06,38.52,26,36.58V30.65A23.33,23.33,0,0,0,24.06,38.52Zm0,0L26,36.58V30.65A23.33,23.33,0,0,0,24.06,38.52Zm4.65-11.81a10.41,10.41,0,0,0-.71.78v7.09l2-2v-7A12.32,12.32,0,0,0,28.71,26.71ZM27.42,38l-1.94,1.94A23.33,23.33,0,0,0,33.35,38ZM32,24.32v6.26l2-2V23.44A17.61,17.61,0,0,0,32,24.32ZM31.42,34l-2,2h7.09a10.41,10.41,0,0,0,.78-.71A12.32,12.32,0,0,0,38.41,34ZM36,22.81v3.77l4.52-4.52A26.93,26.93,0,0,0,36,22.81ZM35.42,30l-2,2h6.26a17.61,17.61,0,0,0,.88-2Zm2-2h3.77a26.93,26.93,0,0,0,.75-4.52Zm0,0h3.77a26.93,26.93,0,0,0,.75-4.52Zm-2,2-2,2h6.26a17.61,17.61,0,0,0,.88-2ZM36,22.81v3.77l4.52-4.52A26.93,26.93,0,0,0,36,22.81ZM31.42,34l-2,2h7.09a10.41,10.41,0,0,0,.78-.71A12.32,12.32,0,0,0,38.41,34ZM32,24.32v6.26l2-2V23.44A17.61,17.61,0,0,0,32,24.32ZM27.42,38l-1.94,1.94A23.33,23.33,0,0,0,33.35,38Zm1.29-11.29a10.41,10.41,0,0,0-.71.78v7.09l2-2v-7A12.32,12.32,0,0,0,28.71,26.71ZM24.06,38.52,26,36.58V30.65A23.33,23.33,0,0,0,24.06,38.52Zm0,0L26,36.58V30.65A23.33,23.33,0,0,0,24.06,38.52Zm4.65-11.81a10.41,10.41,0,0,0-.71.78v7.09l2-2v-7A12.32,12.32,0,0,0,28.71,26.71ZM27.42,38l-1.94,1.94A23.33,23.33,0,0,0,33.35,38ZM32,24.32v6.26l2-2V23.44A17.61,17.61,0,0,0,32,24.32ZM31.42,34l-2,2h7.09a10.41,10.41,0,0,0,.78-.71A12.32,12.32,0,0,0,38.41,34ZM36,22.81v3.77l4.52-4.52A26.93,26.93,0,0,0,36,22.81ZM35.42,30l-2,2h6.26a17.61,17.61,0,0,0,.88-2Zm2-2h3.77a26.93,26.93,0,0,0,.75-4.52Zm0,0h3.77a26.93,26.93,0,0,0,.75-4.52Zm-2,2-2,2h6.26a17.61,17.61,0,0,0,.88-2ZM36,22.81v3.77l4.52-4.52A26.93,26.93,0,0,0,36,22.81ZM31.42,34l-2,2h7.09a10.41,10.41,0,0,0,.78-.71A12.32,12.32,0,0,0,38.41,34ZM32,24.32v6.26l2-2V23.44A17.61,17.61,0,0,0,32,24.32ZM27.42,38l-1.94,1.94A23.33,23.33,0,0,0,33.35,38Zm1.29-11.29a10.41,10.41,0,0,0-.71.78v7.09l2-2v-7A12.32,12.32,0,0,0,28.71,26.71ZM24.06,38.52,26,36.58V30.65A23.33,23.33,0,0,0,24.06,38.52Zm0,0L26,36.58V30.65A23.33,23.33,0,0,0,24.06,38.52Zm4.65-11.81a10.41,10.41,0,0,0-.71.78v7.09l2-2v-7A12.32,12.32,0,0,0,28.71,26.71ZM27.42,38l-1.94,1.94A23.33,23.33,0,0,0,33.35,38ZM32,24.32v6.26l2-2V23.44A17.61,17.61,0,0,0,32,24.32ZM31.42,34l-2,2h7.09a10.41,10.41,0,0,0,.78-.71A12.32,12.32,0,0,0,38.41,34ZM36,22.81v3.77l4.52-4.52A26.93,26.93,0,0,0,36,22.81ZM35.42,30l-2,2h6.26a17.61,17.61,0,0,0,.88-2Zm2-2h3.77a26.93,26.93,0,0,0,.75-4.52Zm0,0h3.77a26.93,26.93,0,0,0,.75-4.52Zm-4,4h6.26a17.61,17.61,0,0,0,.88-2H35.42ZM36,22.81v3.77l4.52-4.52A26.93,26.93,0,0,0,36,22.81ZM29.42,36h7.09a10.41,10.41,0,0,0,.78-.71A12.32,12.32,0,0,0,38.41,34h-7ZM34,23.44a17.61,17.61,0,0,0-2,.88v6.26l2-2Zm-8.52,16.5A23.33,23.33,0,0,0,33.35,38H27.42ZM30,25.59a12.32,12.32,0,0,0-1.29,1.12,10.41,10.41,0,0,0-.71.78v7.09l2-2Zm-4,5.06a23.33,23.33,0,0,0-1.94,7.87L26,36.58ZM17.1,16l2.81,29H20a3,3,0,0,1,3,3v8H41V48a3,3,0,0,1,3-3h.09L46.9,16ZM41.19,33.39a1.4,1.4,0,0,1-.09.17,15.14,15.14,0,0,1-2.39,3.15,13.13,13.13,0,0,1-1.12,1l-.15.12C32.59,41.67,26,42,23.73,42c-.37,0-.62,0-.73,0a1,1,0,0,1-.41-.09.65.65,0,0,1-.16-.09.45.45,0,0,1-.13-.11,1,1,0,0,1-.21-.3.25.25,0,0,1,0-.09h0l0-.12a.13.13,0,0,1,0-.06A.57.57,0,0,1,22,41c0-.86-.27-8.82,4.17-14.44l.12-.15a13.13,13.13,0,0,1,1-1.12,14.88,14.88,0,0,1,3.15-2.39,1.4,1.4,0,0,1,.17-.09A25.17,25.17,0,0,1,43,20a1,1,0,0,1,.34.06l.07,0a1,1,0,0,1,.29.2,1,1,0,0,1,.21.3.25.25,0,0,1,0,.09h0l0,.12a.13.13,0,0,1,0,.06A.57.57,0,0,1,44,21,25.22,25.22,0,0,1,41.19,33.39Zm0-5.39a26.93,26.93,0,0,0,.75-4.52L37.42,28Zm-7.77,4h6.26a17.61,17.61,0,0,0,.88-2H35.42ZM36,22.81v3.77l4.52-4.52A26.93,26.93,0,0,0,36,22.81ZM29.42,36h7.09a10.41,10.41,0,0,0,.78-.71A12.32,12.32,0,0,0,38.41,34h-7ZM34,23.44a17.61,17.61,0,0,0-2,.88v6.26l2-2Zm-8.52,16.5A23.33,23.33,0,0,0,33.35,38H27.42ZM30,25.59a12.32,12.32,0,0,0-1.29,1.12,10.41,10.41,0,0,0-.71.78v7.09l2-2Zm-4,5.06a23.33,23.33,0,0,0-1.94,7.87L26,36.58Zm-1.94,7.87L26,36.58V30.65A23.33,23.33,0,0,0,24.06,38.52Zm4.65-11.81a10.41,10.41,0,0,0-.71.78v7.09l2-2v-7A12.32,12.32,0,0,0,28.71,26.71ZM27.42,38l-1.94,1.94A23.33,23.33,0,0,0,33.35,38ZM32,24.32v6.26l2-2V23.44A17.61,17.61,0,0,0,32,24.32ZM31.42,34l-2,2h7.09a10.41,10.41,0,0,0,.78-.71A12.32,12.32,0,0,0,38.41,34ZM36,22.81v3.77l4.52-4.52A26.93,26.93,0,0,0,36,22.81ZM35.42,30l-2,2h6.26a17.61,17.61,0,0,0,.88-2Zm2-2h3.77a26.93,26.93,0,0,0,.75-4.52Zm0,0h3.77a26.93,26.93,0,0,0,.75-4.52Zm-2,2-2,2h6.26a17.61,17.61,0,0,0,.88-2ZM36,22.81v3.77l4.52-4.52A26.93,26.93,0,0,0,36,22.81ZM31.42,34l-2,2h7.09a10.41,10.41,0,0,0,.78-.71A12.32,12.32,0,0,0,38.41,34ZM32,24.32v6.26l2-2V23.44A17.61,17.61,0,0,0,32,24.32ZM27.42,38l-1.94,1.94A23.33,23.33,0,0,0,33.35,38Zm1.29-11.29a10.41,10.41,0,0,0-.71.78v7.09l2-2v-7A12.32,12.32,0,0,0,28.71,26.71ZM24.06,38.52,26,36.58V30.65A23.33,23.33,0,0,0,24.06,38.52Zm0,0L26,36.58V30.65A23.33,23.33,0,0,0,24.06,38.52Zm4.65-11.81a10.41,10.41,0,0,0-.71.78v7.09l2-2v-7A12.32,12.32,0,0,0,28.71,26.71ZM27.42,38l-1.94,1.94A23.33,23.33,0,0,0,33.35,38ZM32,24.32v6.26l2-2V23.44A17.61,17.61,0,0,0,32,24.32ZM31.42,34l-2,2h7.09a10.41,10.41,0,0,0,.78-.71A12.32,12.32,0,0,0,38.41,34ZM36,22.81v3.77l4.52-4.52A26.93,26.93,0,0,0,36,22.81ZM35.42,30l-2,2h6.26a17.61,17.61,0,0,0,.88-2Zm2-2h3.77a26.93,26.93,0,0,0,.75-4.52Zm0,0h3.77a26.93,26.93,0,0,0,.75-4.52Zm-2,2-2,2h6.26a17.61,17.61,0,0,0,.88-2ZM36,22.81v3.77l4.52-4.52A26.93,26.93,0,0,0,36,22.81ZM31.42,34l-2,2h7.09a10.41,10.41,0,0,0,.78-.71A12.32,12.32,0,0,0,38.41,34ZM32,24.32v6.26l2-2V23.44A17.61,17.61,0,0,0,32,24.32ZM27.42,38l-1.94,1.94A23.33,23.33,0,0,0,33.35,38Zm1.29-11.29a10.41,10.41,0,0,0-.71.78v7.09l2-2v-7A12.32,12.32,0,0,0,28.71,26.71ZM24.06,38.52,26,36.58V30.65A23.33,23.33,0,0,0,24.06,38.52Zm0,0L26,36.58V30.65A23.33,23.33,0,0,0,24.06,38.52Zm4.65-11.81a10.41,10.41,0,0,0-.71.78v7.09l2-2v-7A12.32,12.32,0,0,0,28.71,26.71ZM27.42,38l-1.94,1.94A23.33,23.33,0,0,0,33.35,38ZM32,24.32v6.26l2-2V23.44A17.61,17.61,0,0,0,32,24.32ZM31.42,34l-2,2h7.09a10.41,10.41,0,0,0,.78-.71A12.32,12.32,0,0,0,38.41,34ZM36,22.81v3.77l4.52-4.52A26.93,26.93,0,0,0,36,22.81ZM35.42,30l-2,2h6.26a17.61,17.61,0,0,0,.88-2Zm2-2h3.77a26.93,26.93,0,0,0,.75-4.52Zm0,0h3.77a26.93,26.93,0,0,0,.75-4.52Zm-2,2-2,2h6.26a17.61,17.61,0,0,0,.88-2ZM36,22.81v3.77l4.52-4.52A26.93,26.93,0,0,0,36,22.81ZM31.42,34l-2,2h7.09a10.41,10.41,0,0,0,.78-.71A12.32,12.32,0,0,0,38.41,34ZM32,24.32v6.26l2-2V23.44A17.61,17.61,0,0,0,32,24.32ZM27.42,38l-1.94,1.94A23.33,23.33,0,0,0,33.35,38Zm1.29-11.29a10.41,10.41,0,0,0-.71.78v7.09l2-2v-7A12.32,12.32,0,0,0,28.71,26.71ZM24.06,38.52,26,36.58V30.65A23.33,23.33,0,0,0,24.06,38.52Zm0,0L26,36.58V30.65A23.33,23.33,0,0,0,24.06,38.52Zm4.65-11.81a10.41,10.41,0,0,0-.71.78v7.09l2-2v-7A12.32,12.32,0,0,0,28.71,26.71ZM32,24.32v6.26l2-2V23.44A17.61,17.61,0,0,0,32,24.32ZM31.42,34l-2,2h7.09a10.41,10.41,0,0,0,.78-.71A12.32,12.32,0,0,0,38.41,34Zm-4,4-1.94,1.94A23.33,23.33,0,0,0,33.35,38ZM36,22.81v3.77l4.52-4.52A26.93,26.93,0,0,0,36,22.81ZM35.42,30l-2,2h6.26a17.61,17.61,0,0,0,.88-2Zm2-2h3.77a26.93,26.93,0,0,0,.75-4.52Zm0,0h3.77a26.93,26.93,0,0,0,.75-4.52ZM36,22.81v3.77l4.52-4.52A26.93,26.93,0,0,0,36,22.81Zm-4,1.51v6.26l2-2V23.44A17.61,17.61,0,0,0,32,24.32Zm-3.29,2.39a10.41,10.41,0,0,0-.71.78v7.09l2-2v-7A12.32,12.32,0,0,0,28.71,26.71ZM24.06,38.52,26,36.58V30.65A23.33,23.33,0,0,0,24.06,38.52Zm0,0L26,36.58V30.65A23.33,23.33,0,0,0,24.06,38.52Zm4.65-11.81a10.41,10.41,0,0,0-.71.78v7.09l2-2v-7A12.32,12.32,0,0,0,28.71,26.71ZM32,24.32v6.26l2-2V23.44A17.61,17.61,0,0,0,32,24.32Zm4-1.51v3.77l4.52-4.52A26.93,26.93,0,0,0,36,22.81ZM37.42,28h3.77a26.93,26.93,0,0,0,.75-4.52Zm-6,6-2,2h7.09a10.41,10.41,0,0,0,.78-.71A12.32,12.32,0,0,0,38.41,34Zm-4,4-1.94,1.94A23.33,23.33,0,0,0,33.35,38Zm8-8-2,2h6.26a17.61,17.61,0,0,0,.88-2ZM32,24.32v6.26l2-2V23.44A17.61,17.61,0,0,0,32,24.32Zm4-1.51v3.77l4.52-4.52A26.93,26.93,0,0,0,36,22.81Zm-7.29,3.9a10.41,10.41,0,0,0-.71.78v7.09l2-2v-7A12.32,12.32,0,0,0,28.71,26.71ZM24.06,38.52,26,36.58V30.65A23.33,23.33,0,0,0,24.06,38.52Zm0,0L26,36.58V30.65A23.33,23.33,0,0,0,24.06,38.52ZM32,24.32v6.26l2-2V23.44A17.61,17.61,0,0,0,32,24.32Zm4-1.51v3.77l4.52-4.52A26.93,26.93,0,0,0,36,22.81Zm-7.29,3.9a10.41,10.41,0,0,0-.71.78v7.09l2-2v-7A12.32,12.32,0,0,0,28.71,26.71ZM37.42,28h3.77a26.93,26.93,0,0,0,.75-4.52Zm-6,6-2,2h7.09a10.41,10.41,0,0,0,.78-.71A12.32,12.32,0,0,0,38.41,34Zm-4,4-1.94,1.94A23.33,23.33,0,0,0,33.35,38Zm8-8-2,2h6.26a17.61,17.61,0,0,0,.88-2ZM24.06,38.52,26,36.58V30.65A23.33,23.33,0,0,0,24.06,38.52Zm0,0L26,36.58V30.65A23.33,23.33,0,0,0,24.06,38.52ZM32,24.32v6.26l2-2V23.44A17.61,17.61,0,0,0,32,24.32Zm4-1.51v3.77l4.52-4.52A26.93,26.93,0,0,0,36,22.81Zm-7.29,3.9a10.41,10.41,0,0,0-.71.78v7.09l2-2v-7A12.32,12.32,0,0,0,28.71,26.71ZM37.42,28h3.77a26.93,26.93,0,0,0,.75-4.52Zm-6,6-2,2h7.09a10.41,10.41,0,0,0,.78-.71A12.32,12.32,0,0,0,38.41,34Zm-4,4-1.94,1.94A23.33,23.33,0,0,0,33.35,38Zm8-8-2,2h6.26a17.61,17.61,0,0,0,.88-2ZM24.06,38.52,26,36.58V30.65A23.33,23.33,0,0,0,24.06,38.52Zm0,0L26,36.58V30.65A23.33,23.33,0,0,0,24.06,38.52ZM31.42,34l-2,2h7.09a10.41,10.41,0,0,0,.78-.71A12.32,12.32,0,0,0,38.41,34Zm-4,4-1.94,1.94A23.33,23.33,0,0,0,33.35,38Zm-3.36.52L26,36.58V30.65A23.33,23.33,0,0,0,24.06,38.52Zm0,0L26,36.58V30.65A23.33,23.33,0,0,0,24.06,38.52ZM31.42,34l-2,2h7.09a10.41,10.41,0,0,0,.78-.71A12.32,12.32,0,0,0,38.41,34Zm-4,4-1.94,1.94A23.33,23.33,0,0,0,33.35,38Zm-3.36.52L26,36.58V30.65A23.33,23.33,0,0,0,24.06,38.52Zm0,0L26,36.58V30.65A23.33,23.33,0,0,0,24.06,38.52ZM31.42,34l-2,2h7.09a10.41,10.41,0,0,0,.78-.71A12.32,12.32,0,0,0,38.41,34Zm-4,4-1.94,1.94A23.33,23.33,0,0,0,33.35,38Zm-3.36.52L26,36.58V30.65A23.33,23.33,0,0,0,24.06,38.52Zm0,0L26,36.58V30.65A23.33,23.33,0,0,0,24.06,38.52ZM31.42,34l-2,2h7.09a10.41,10.41,0,0,0,.78-.71A12.32,12.32,0,0,0,38.41,34Zm-4,4-1.94,1.94A23.33,23.33,0,0,0,33.35,38Zm-3.36.52L26,36.58V30.65A23.33,23.33,0,0,0,24.06,38.52ZM27.42,38l-1.94,1.94A23.33,23.33,0,0,0,33.35,38Zm0,0-1.94,1.94A23.33,23.33,0,0,0,33.35,38Z" fill="#ffffff" class="color000000 svgShape"></path><rect width="4" height="12" x="43" y="47" rx="1" fill="#ffffff" class="color000000 svgShape"></rect><path d="M13.1 14A5 5 0 0 1 18 10H46a5 5 0 0 1 4.9 4zM22.09 41.41a1 1 0 0 0 .21.3h0A.83.83 0 0 1 22.09 41.41zM43.91 20.59a1 1 0 0 0-.21-.3h0A.83.83 0 0 1 43.91 20.59z" fill="#ffffff" class="color000000 svgShape"></path></svg>