<svg width="23" height="23" viewBox="0 0 23 23" fill="none" xmlns="http://www.w3.org/2000/svg">
<path d="M11.5 6.29164H6.81251C6.12184 6.29164 5.45946 6.01728 4.97108 5.5289C4.48271 5.04053 4.20834 4.37815 4.20834 3.68748C4.20834 2.99681 4.48271 2.33443 4.97108 1.84606C5.45946 1.35768 6.12184 1.08331 6.81251 1.08331C10.4583 1.08331 11.5 6.29164 11.5 6.29164ZM11.5 6.29164H16.1875C16.8782 6.29164 17.5405 6.01728 18.0289 5.5289C18.5173 5.04053 18.7917 4.37815 18.7917 3.68748C18.7917 2.99681 18.5173 2.33443 18.0289 1.84606C17.5405 1.35768 16.8782 1.08331 16.1875 1.08331C12.5417 1.08331 11.5 6.29164 11.5 6.29164ZM11.5 6.29164L11.5 21.9166M1.08334 13.5833H21.9167M1.08334 9.62497L1.08334 18.5833C1.08334 19.7501 1.08334 20.3335 1.31041 20.7791C1.51015 21.1711 1.82886 21.4898 2.22086 21.6896C2.66651 21.9166 3.2499 21.9166 4.41667 21.9166L18.5833 21.9166C19.7501 21.9166 20.3335 21.9166 20.7791 21.6896C21.1712 21.4898 21.4899 21.1711 21.6896 20.7791C21.9167 20.3335 21.9167 19.7501 21.9167 18.5833V9.62498C21.9167 8.4582 21.9167 7.87481 21.6896 7.42916C21.4899 7.03716 21.1711 6.71845 20.7791 6.51871C20.3335 6.29165 19.7501 6.29165 18.5833 6.29165L4.41668 6.29164C3.2499 6.29164 2.66651 6.29164 2.22086 6.51871C1.82886 6.71845 1.51015 7.03716 1.31041 7.42916C1.08334 7.87481 1.08334 8.4582 1.08334 9.62497Z" stroke="white" stroke-width="1.4" stroke-linecap="round" stroke-linejoin="round"/>
</svg>
