<svg xmlns="http://www.w3.org/2000/svg" viewBox="0 0 32 32" id="Google"><path fill="#08b6f6" d="M16 0H2.5v24.5L16 32l13.5-7.5V0z" class="color999999 svgShape"></path><path d="M16 1.422H3.871V23.47L16 30.208l12.129-6.738V1.422z" fill="#000000" class="color000000 svgShape"></path><path fill="#ffffff" d="M2.5 0h27v7.32l-27 7.269z" opacity=".15" class="colorffffff svgShape"></path><path fill="#ffffff" d="M2.5 0h27v3.66l-27 7.269z" opacity=".3" class="colorffffff svgShape"></path><path fill="#ffffff" d="M23.605 12.516c.099.529.153 1.084.153 1.662 0 4.522-3.028 7.739-7.6 7.739-4.374 0-7.917-3.543-7.917-7.917s3.543-7.917 7.917-7.917c2.138 0 3.924.787 5.294 2.063l-2.232 2.232v-.005c-.831-.792-1.885-1.197-3.062-1.197-2.612 0-4.735 2.207-4.735 4.819s2.123 4.824 4.735 4.824c2.37 0 3.983-1.356 4.315-3.216h-4.315v-3.088l7.447.001z" class="colorffffff svgShape"></path></svg>