<svg id="SvgjsSvg1001" width="288" height="288" xmlns="http://www.w3.org/2000/svg" version="1.1" xmlns:xlink="http://www.w3.org/1999/xlink" xmlns:svgjs="http://svgjs.com/svgjs"><defs id="SvgjsDefs1002"></defs><g id="SvgjsG1008"><svg xmlns="http://www.w3.org/2000/svg" fill="none" viewBox="0 0 24 24" width="288" height="288"><path fill="#ffffff" fill-rule="evenodd" d="M12 2.75C6.89137 2.75 2.75 6.89137 2.75 12C2.75 17.1086 6.89137 21.25 12 21.25C17.1086 21.25 21.25 17.1086 21.25 12C21.25 6.89137 17.1086 2.75 12 2.75ZM1.25 12C1.25 6.06294 6.06294 1.25 12 1.25C17.9371 1.25 22.75 6.06294 22.75 12C22.75 17.9371 17.9371 22.75 12 22.75C6.06294 22.75 1.25 17.9371 1.25 12Z" clip-rule="evenodd" class="colorAAA svgShape"></path><path fill="#ffffff" d="M9 12C9 12.5523 8.55228 13 8 13 7.44772 13 7 12.5523 7 12 7 11.4477 7.44772 11 8 11 8.55228 11 9 11.4477 9 12zM13 12C13 12.5523 12.5523 13 12 13 11.4477 13 11 12.5523 11 12 11 11.4477 11.4477 11 12 11 12.5523 11 13 11.4477 13 12zM17 12C17 12.5523 16.5523 13 16 13 15.4477 13 15 12.5523 15 12 15 11.4477 15.4477 11 16 11 16.5523 11 17 11.4477 17 12z" class="color111 svgShape"></path></svg></g></svg>