<svg width="25" height="26" viewBox="0 0 25 26" fill="none" xmlns="http://www.w3.org/2000/svg">
<path d="M22.6608 2.8963L22.7246 3.09586L23.4137 5.49902C23.5445 5.95525 23.3136 6.42952 22.8908 6.61532L22.7709 6.65861L9.36225 10.5025L23.3111 10.5037C23.7857 10.5037 24.1779 10.8563 24.24 11.3139L24.2486 11.4412V22.0637C24.2486 23.8918 22.8215 25.3867 21.0205 25.4949L20.8111 25.5012H5.18751C3.35934 25.5012 1.8645 24.074 1.75628 22.2731L1.75001 22.0637L1.74975 11.5737L1.09755 9.29731C0.59364 7.53997 1.55345 5.70966 3.25482 5.10922L3.45438 5.04547L18.4727 0.73903C20.2301 0.235119 22.0604 1.19493 22.6608 2.8963ZM22.3725 12.3774H3.62501V22.0637C3.62501 22.8187 4.1606 23.4487 4.87261 23.5944L5.02775 23.6181L5.18751 23.6262H20.8111C21.6201 23.6262 22.2855 23.0113 22.3655 22.2234L22.3736 22.0637L22.3725 12.3774ZM5.84086 6.31172L3.9712 6.84784C3.19353 7.07083 2.72333 7.84528 2.86358 8.62471L2.89986 8.78051L3.33028 10.2816L3.69914 10.1755L5.84086 6.31172ZM11.7863 4.6069L8.3894 5.58094L6.24768 9.4447L9.64454 8.47067L11.7863 4.6069ZM17.7329 2.90174L14.336 3.87578L12.1943 7.73954L15.5899 6.76585L17.7329 2.90174ZM20.0419 2.6098L18.1409 6.03438L21.3515 5.11405L20.9222 3.61268C20.7883 3.14554 20.4553 2.78936 20.0419 2.6098Z" fill="white"/>
</svg>
