<svg width="30" height="30" viewBox="0 0 30 30" fill="none" xmlns="http://www.w3.org/2000/svg">
<path d="M24.3 26.7001C25.6255 26.7001 26.7 25.6256 26.7 24.3001V5.7001C26.7 4.37456 25.6255 3.3001 24.3 3.3001H5.69998C4.37444 3.3001 3.29998 4.37456 3.29998 5.7001V24.3001C3.29998 25.6256 4.37444 26.7001 5.69998 26.7001H24.3ZM24.3 27.9001H5.69998C3.71171 27.9001 2.09998 26.2884 2.09998 24.3001V5.7001C2.09998 3.71184 3.71171 2.1001 5.69998 2.1001H24.3C26.2882 2.1001 27.9 3.71184 27.9 5.7001V24.3001C27.9 26.2884 26.2882 27.9001 24.3 27.9001Z" fill="white"/>
<path d="M2.85 8.39995H27.15C27.4814 8.39995 27.75 8.13133 27.75 7.79995C27.75 7.46857 27.4814 7.19995 27.15 7.19995H2.85C2.51862 7.19995 2.25 7.46857 2.25 7.79995C2.25 8.13133 2.51862 8.39995 2.85 8.39995Z" fill="white"/>
<path d="M22.1672 2.4384L17.4236 7.18201C17.1892 7.41632 17.1892 7.79622 17.4236 8.03053C17.6579 8.26485 18.0378 8.26485 18.2721 8.03053L23.0157 3.28693C23.25 3.05261 23.25 2.67272 23.0157 2.4384C22.7814 2.20409 22.4015 2.20409 22.1672 2.4384ZM17.4872 2.4384L12.7436 7.18201C12.5092 7.41632 12.5092 7.79622 12.7436 8.03053C12.9779 8.26485 13.3578 8.26485 13.5921 8.03053L18.3357 3.28693C18.57 3.05261 18.57 2.67272 18.3357 2.4384C18.1014 2.20409 17.7215 2.20409 17.4872 2.4384ZM12.7772 2.4384L8.03356 7.18201C7.79925 7.41632 7.79925 7.79622 8.03356 8.03053C8.26788 8.26485 8.64777 8.26485 8.88209 8.03053L13.6257 3.28693C13.86 3.05261 13.86 2.67272 13.6257 2.4384C13.3914 2.20409 13.0115 2.20409 12.7772 2.4384ZM8.12717 2.4084L3.38356 7.15201C3.14925 7.38632 3.14925 7.76622 3.38356 8.00053C3.61788 8.23485 3.99777 8.23485 4.23209 8.00053L8.97569 3.25693C9.21001 3.02261 9.21001 2.64272 8.97569 2.4084C8.74137 2.17409 8.36148 2.17409 8.12717 2.4084ZM25.6424 3.67245L21.971 7.34384C21.7367 7.57816 21.7367 7.95805 21.971 8.19237C22.2053 8.42668 22.5852 8.42668 22.8195 8.19237L26.4909 4.52097C26.7252 4.28666 26.7252 3.90676 26.4909 3.67245C26.2566 3.43813 25.8767 3.43813 25.6424 3.67245ZM13.1356 12.7625C12.9358 12.6359 12.6749 12.7794 12.6749 13.0159V21.2461C12.6749 21.4824 12.9359 21.6261 13.1356 21.4995L19.6291 17.3844C19.815 17.2666 19.815 16.9954 19.629 16.8776L13.1355 12.7625H13.1356ZM20.2714 15.864C21.2009 16.453 21.2009 17.8091 20.2714 18.3981L13.778 22.5131C12.7794 23.1461 11.4749 22.4283 11.4749 21.2461V13.016C11.4749 11.8335 12.7793 11.116 13.7779 11.749L20.2714 15.864Z" fill="white"/>
</svg>
