<svg width="24" height="37" viewBox="0 0 24 37" fill="none" xmlns="http://www.w3.org/2000/svg">
<path fill-rule="evenodd" clip-rule="evenodd" d="M9.58613 21.7788V14.6638C11.9768 15.8524 13.8283 17.0005 16.0181 18.2384C14.212 19.2966 11.9768 20.4841 9.58613 21.7788ZM22.9092 11.1252C22.4968 10.5512 21.794 10.1044 21.0457 9.95643C18.8463 9.51515 5.12518 9.5139 2.92698 9.95643C2.32693 10.0753 1.7926 10.3626 1.3336 10.8089C-0.600435 12.7055 0.00559941 22.8763 0.471777 24.5238C0.667809 25.2369 0.921228 25.7512 1.24038 26.0888C1.65157 26.5351 2.21456 26.8424 2.86123 26.9803C4.67214 27.376 14.0016 27.5973 21.0074 27.0397C21.6529 26.9208 22.2243 26.6036 22.6749 26.1383C24.4631 24.2493 24.3412 13.5073 22.9092 11.1252Z" fill="#FF0000"/>
</svg>
