<svg width="21" height="21" viewBox="0 0 21 21" fill="none" xmlns="http://www.w3.org/2000/svg">
<path d="M13.97 15.1278L8.99999 12.0478V5.1778H11V10.9378L15.03 13.4278L13.97 15.1278ZM21 10.1778C21 15.6878 16.51 20.1778 11 20.1778C5.48999 20.1778 0.999991 15.6878 0.999991 10.1778H1.99999C1.99999 15.1378 6.03999 19.1778 11 19.1778C15.96 19.1778 20 15.1378 20 10.1778C20 5.2178 15.96 1.1778 11 1.1778C7.80999 1.1778 4.91999 2.8178 3.27999 5.5578C3.16999 5.7378 3.05999 5.9278 2.96999 6.1178C2.95999 6.1378 2.94999 6.1578 2.93999 6.1778H6.99999V7.1778H0.959991V1.1778H1.95999V5.9178C1.99999 5.8278 2.02999 5.7478 2.06999 5.6678C2.17999 5.4478 2.29999 5.2478 2.41999 5.0378C4.21999 2.0378 7.50999 0.177795 11 0.177795C16.51 0.177795 21 4.6678 21 10.1778Z" fill="white"/>
</svg>
