<svg width="24" height="24" viewBox="0 0 24 24" fill="none" xmlns="http://www.w3.org/2000/svg">
<path fill-rule="evenodd" clip-rule="evenodd" d="M12 3C7.02944 3 3 7.02944 3 12C3 16.9706 7.02944 21 12 21C16.9706 21 21 16.9706 21 12C21 7.02944 16.9706 3 12 3ZM2 12C2 6.47715 6.47715 2 12 2C17.5228 2 22 6.47715 22 12C22 17.5228 17.5228 22 12 22C6.47715 22 2 17.5228 2 12Z" fill="white"/>
<path d="M5 11H19V12H5V11Z" fill="white"/>
<path fill-rule="evenodd" clip-rule="evenodd" d="M8.5 14C7.67157 14 7 14.6716 7 15.5C7 16.3284 7.67157 17 8.5 17C9.32843 17 10 16.3284 10 15.5C10 14.6716 9.32843 14 8.5 14ZM6 15.5C6 14.1193 7.11929 13 8.5 13C9.88071 13 11 14.1193 11 15.5C11 16.8807 9.88071 18 8.5 18C7.11929 18 6 16.8807 6 15.5Z" fill="white"/>
<path fill-rule="evenodd" clip-rule="evenodd" d="M11.2346 13.6522C11.4773 13.5517 11.7374 13.5 12 13.5C12.2626 13.5 12.5227 13.5517 12.7654 13.6522C13.008 13.7528 13.2285 13.9001 13.4142 14.0858C13.5999 14.2715 13.7472 14.492 13.8478 14.7346C13.9483 14.9773 14 15.2374 14 15.5H13C13 15.3687 12.9741 15.2386 12.9239 15.1173C12.8736 14.996 12.8 14.8858 12.7071 14.7929C12.6142 14.7 12.504 14.6264 12.3827 14.5761C12.2614 14.5259 12.1313 14.5 12 14.5C11.8687 14.5 11.7386 14.5259 11.6173 14.5761C11.496 14.6264 11.3858 14.7 11.2929 14.7929C11.2 14.8858 11.1264 14.996 11.0761 15.1173C11.0259 15.2386 11 15.3687 11 15.5H10C10 15.2374 10.0517 14.9773 10.1522 14.7346C10.2528 14.492 10.4001 14.2715 10.5858 14.0858C10.7715 13.9001 10.992 13.7528 11.2346 13.6522Z" fill="white"/>
<path fill-rule="evenodd" clip-rule="evenodd" d="M15.5 14C14.6716 14 14 14.6716 14 15.5C14 16.3284 14.6716 17 15.5 17C16.3284 17 17 16.3284 17 15.5C17 14.6716 16.3284 14 15.5 14ZM13 15.5C13 14.1193 14.1193 13 15.5 13C16.8807 13 18 14.1193 18 15.5C18 16.8807 16.8807 18 15.5 18C14.1193 18 13 16.8807 13 15.5Z" fill="white"/>
<path d="M16.25 10.25H7.75L9.53885 5.33067C9.66561 4.98206 9.99693 4.75 10.3679 4.75H10.8929C11.0901 4.75 11.25 4.9099 11.25 5.10714V5.25C11.25 5.66421 11.5858 6 12 6C12.4142 6 12.75 5.66421 12.75 5.25V5.10714C12.75 4.9099 12.9099 4.75 13.1071 4.75H13.6321C14.0031 4.75 14.3344 4.98206 14.4612 5.33067L16.25 10.25Z" fill="white"/>
</svg>
