<svg width="22" height="22" viewBox="0 0 22 22" fill="none" xmlns="http://www.w3.org/2000/svg">
<path d="M10.8399 0.527832C5.10674 0.527832 0.439941 5.14696 0.439941 10.8216C0.439941 16.4962 5.10674 21.1154 10.8399 21.1154C16.5731 21.1154 21.2399 16.4962 21.2399 10.8216C21.2399 5.14696 16.5731 0.527832 10.8399 0.527832ZM10.8399 3.10127C15.1716 3.10127 18.6399 6.53421 18.6399 10.8216C18.6399 15.109 15.1716 18.5419 10.8399 18.5419C6.5083 18.5419 3.03994 15.109 3.03994 10.8216C3.03994 6.53421 6.5083 3.10127 10.8399 3.10127ZM10.8399 5.51388C10.0325 5.51388 9.37744 6.16226 9.37744 6.96144C9.37744 7.76061 10.0325 8.409 10.8399 8.409C11.6474 8.409 12.3024 7.76061 12.3024 6.96144C12.3024 6.16226 11.6474 5.51388 10.8399 5.51388ZM8.85947 9.53488C8.51416 9.54996 8.23994 9.83143 8.23994 10.1782C8.23994 10.5351 8.52939 10.8216 8.88994 10.8216H9.53994V14.6818H8.88994C8.52939 14.6818 8.23994 14.9683 8.23994 15.3251C8.23994 15.682 8.52939 15.9685 8.88994 15.9685H12.7899C13.1505 15.9685 13.4399 15.682 13.4399 15.3251C13.4399 14.9683 13.1505 14.6818 12.7899 14.6818H12.1399V9.53488H8.88994C8.87979 9.53488 8.86963 9.53488 8.85947 9.53488Z" fill="white"/>
</svg>
