<svg width="24" height="24" viewBox="0 0 24 24" fill="none" xmlns="http://www.w3.org/2000/svg">
<path fill-rule="evenodd" clip-rule="evenodd" d="M13 4.5C11.067 4.5 9.5 6.067 9.5 8C9.5 9.933 11.067 11.5 13 11.5C14.933 11.5 16.5 9.933 16.5 8C16.5 6.067 14.933 4.5 13 4.5ZM8.5 8C8.5 5.51472 10.5147 3.5 13 3.5C15.4853 3.5 17.5 5.51472 17.5 8C17.5 10.4853 15.4853 12.5 13 12.5C10.5147 12.5 8.5 10.4853 8.5 8Z" fill="white"/>
<path fill-rule="evenodd" clip-rule="evenodd" d="M6.98959 13.9896C8.58365 12.3955 10.7457 11.5 13 11.5C15.2543 11.5 17.4163 12.3955 19.0104 13.9896C20.6045 15.5837 21.5 17.7457 21.5 20V20.5L4.5 20.5L4.5 20C4.5 17.7457 5.39553 15.5837 6.98959 13.9896ZM13 12.5C11.0109 12.5 9.10322 13.2902 7.6967 14.6967C6.40849 15.9849 5.6373 17.6935 5.51667 19.5L20.4833 19.5C20.3627 17.6935 19.5915 15.9849 18.3033 14.6967C16.8968 13.2902 14.9891 12.5 13 12.5Z" fill="white"/>
<path d="M2 11H7V12H2V11Z" fill="white"/>
<path d="M5 9L5 14L4 14L4 9L5 9Z" fill="white"/>
</svg>
