<svg width="33" height="32" viewBox="0 0 33 32" fill="none" xmlns="http://www.w3.org/2000/svg">
<circle cx="6" cy="6" r="5" transform="matrix(-1 0 0 1 22.375 4)" stroke="white" stroke-width="2"/>
<path d="M6.375 23C6.375 23.9693 6.49283 24.618 6.71827 25.0791C6.9252 25.5023 7.26179 25.8473 7.89187 26.1337C8.55462 26.4349 9.52046 26.6599 10.9352 26.8028C12.3404 26.9448 14.1203 27 16.375 27C18.6297 27 20.4096 26.9448 21.8148 26.8028C23.2295 26.6599 24.1954 26.4349 24.8581 26.1337C25.4882 25.8473 25.8248 25.5023 26.0317 25.0791C26.2572 24.618 26.375 23.9693 26.375 23C26.375 22.0307 26.2572 21.382 26.0317 20.9209C25.8248 20.4977 25.4882 20.1527 24.8581 19.8663C24.1954 19.5651 23.2295 19.3401 21.8148 19.1972C20.4096 19.0552 18.6297 19 16.375 19C14.1203 19 12.3404 19.0552 10.9352 19.1972C9.52046 19.3401 8.55462 19.5651 7.89187 19.8663C7.26179 20.1527 6.9252 20.4977 6.71827 20.9209C6.49283 21.382 6.375 22.0307 6.375 23Z" stroke="white" stroke-width="2" stroke-linecap="round" stroke-linejoin="round"/>
</svg>
