<svg width="30" height="26" viewBox="0 0 24 25" fill="none" xmlns="http://www.w3.org/2000/svg">
<path d="M19.5 20.4278L19.5 3.9278C19.5 3.51358 19.1642 3.1778 18.75 3.1778L5.25 3.17779C4.83579 3.17779 4.5 3.51358 4.5 3.92779L4.5 20.4278C4.5 20.842 4.83579 21.1778 5.25 21.1778L18.75 21.1778C19.1642 21.1778 19.5 20.842 19.5 20.4278Z" stroke="white" stroke-linecap="round" stroke-linejoin="round"/>
<path d="M16.5 19.3028L16.5 21.1778" stroke="white" stroke-linecap="round" stroke-linejoin="round"/>
<path d="M7.5 19.3028L7.5 21.1778" stroke="white" stroke-linecap="round" stroke-linejoin="round"/>
<path d="M16.5 3.1778L16.5 5.0528" stroke="white" stroke-linecap="round" stroke-linejoin="round"/>
<path d="M7.5 3.1778L7.5 5.0528" stroke="white" stroke-linecap="round" stroke-linejoin="round"/>
<path d="M16.5 8.8028L16.5 10.3028" stroke="white" stroke-linecap="round" stroke-linejoin="round"/>
<path d="M7.5 8.8028L7.5 10.3028" stroke="white" stroke-linecap="round" stroke-linejoin="round"/>
<path d="M16.5 14.0528L16.5 15.5528" stroke="white" stroke-linecap="round" stroke-linejoin="round"/>
<path d="M7.5 14.0528L7.5 15.5528" stroke="white" stroke-linecap="round" stroke-linejoin="round"/>
</svg>
