<svg xmlns="http://www.w3.org/2000/svg" fill-rule="evenodd" stroke-linejoin="round" stroke-miterlimit="2" clip-rule="evenodd" viewBox="0 0 32 32" id="send"><path fill="url(#_Linear1)" d="M11.499,19.173l5.801,-5.849c0.389,-0.392 1.022,-0.394 1.414,-0.006c0.392,0.389 0.395,1.022 0.006,1.414l-5.798,5.847l5.306,8.002c0.207,0.313 0.572,0.483 0.945,0.441c0.373,-0.042 0.691,-0.289 0.824,-0.64l9.024,-23.904c0.138,-0.366 0.05,-0.78 -0.226,-1.058c-0.276,-0.278 -0.689,-0.369 -1.057,-0.233l-24.004,8.892c-0.353,0.13 -0.602,0.448 -0.646,0.821c-0.044,0.373 0.125,0.74 0.438,0.948l7.973,5.325Z"></path><defs><linearGradient id="_Linear1" x1="0" x2="1" y1="0" y2="0" gradientTransform="matrix(32 0 0 32 0 16)" gradientUnits="userSpaceOnUse"><stop offset="0" stop-color="#0096ff"></stop><stop offset="1" stop-color="#72ffff"></stop></linearGradient></defs></svg>