<svg width="31" height="31" viewBox="0 0 31 31" fill="none" xmlns="http://www.w3.org/2000/svg">
<path d="M24.7483 10.385L19.5817 5.77377C17.2567 3.69418 13.7433 3.69418 11.4183 5.77377L6.25167 10.385C4.94708 11.5475 4.19792 13.2138 4.19792 14.9704V23.1854C4.19792 25.8979 6.36792 28.1067 9.04167 28.1067H21.9583C24.6321 28.1067 26.8021 25.8979 26.8021 23.1854V14.9704C26.8021 13.2267 26.0529 11.5475 24.7483 10.385ZM18.4063 26.1563H12.5938V21.9584C12.5938 20.3567 13.8983 19.0521 15.5 19.0521C17.1017 19.0521 18.4063 20.3567 18.4063 21.9584V26.1563ZM24.8646 23.1725C24.8646 24.8129 23.56 26.1563 21.9583 26.1563H20.3438V21.9584C20.3438 19.2846 18.1738 17.1146 15.5 17.1146C12.8263 17.1146 10.6563 19.2846 10.6563 21.9584V26.1563H9.04167C7.44 26.1563 6.13542 24.8259 6.13542 23.1725V14.9575C6.13542 13.7563 6.65208 12.6196 7.54333 11.8188L12.71 7.20752C14.2988 5.78668 16.7013 5.78668 18.29 7.20752L23.4567 11.8188C24.3479 12.6196 24.8646 13.7563 24.8646 14.9575V23.1725Z"/>
</svg>
