<svg width="32" height="31" viewBox="0 0 32 31" fill="none" xmlns="http://www.w3.org/2000/svg">
<path d="M9.10938 6.37911C9.6138 6.88354 9.6138 7.70138 9.10938 8.20581C5.07266 12.2425 5.07266 18.7873 9.10938 22.8241C9.6138 23.3285 9.6138 24.1463 9.10938 24.6507C8.60495 25.1552 7.78711 25.1552 7.28268 24.6507C2.23711 19.6052 2.23711 11.4247 7.28268 6.37911C7.78711 5.87469 8.60495 5.87469 9.10938 6.37911ZM25.5543 6.37911C30.5999 11.4247 30.5999 19.6052 25.5543 24.6507C25.0499 25.1552 24.232 25.1552 23.7276 24.6507C23.2232 24.1463 23.2232 23.3285 23.7276 22.8241C27.7643 18.7873 27.7643 12.2425 23.7276 8.20581C23.2232 7.70138 23.2232 6.88354 23.7276 6.37911C24.232 5.87469 25.0499 5.87469 25.5543 6.37911ZM12.9413 10.0906C13.4457 10.595 13.4457 11.4128 12.9413 11.9173C10.9638 13.8947 10.9638 17.1009 12.9413 19.0784C13.4457 19.5828 13.4457 20.4007 12.9413 20.9051C12.4369 21.4095 11.619 21.4095 11.1146 20.9051C8.12826 17.9187 8.12826 13.0769 11.1146 10.0906C11.619 9.58613 12.4369 9.58613 12.9413 10.0906ZM21.9291 10.0906C24.9155 13.0769 24.9155 17.9187 21.9291 20.9051C21.4247 21.4095 20.6069 21.4095 20.1024 20.9051C19.598 20.4007 19.598 19.5828 20.1024 19.0784C22.0799 17.1009 22.0799 13.8947 20.1024 11.9173C19.598 11.4128 19.598 10.595 20.1024 10.0906C20.6069 9.58613 21.4247 9.58613 21.9291 10.0906ZM16.5219 13.6677C17.5919 13.6677 18.4594 14.5352 18.4594 15.6052C18.4594 16.6753 17.5919 17.5427 16.5219 17.5427C15.4518 17.5427 14.5844 16.6753 14.5844 15.6052C14.5844 14.5352 15.4518 13.6677 16.5219 13.6677Z"/>
</svg>
