<svg width="32" height="31" viewBox="0 0 32 31" fill="none" xmlns="http://www.w3.org/2000/svg">
<g opacity="0.12">
<path d="M22.675 2.58334C24.8452 2.58334 25.9304 2.58334 26.7593 3.00569C27.4884 3.3772 28.0812 3.97 28.4527 4.69913C28.875 5.52804 28.875 6.61314 28.875 8.78334V9.04168L3.04171 9.04168L3.04171 8.78334C3.04171 6.61314 3.04171 5.52804 3.46406 4.69913C3.83557 3.97 4.42837 3.3772 5.1575 3.00569C5.98641 2.58334 7.07151 2.58334 9.24171 2.58334L22.675 2.58334Z"/>
<path d="M22.675 28.4167C24.8452 28.4167 25.9303 28.4167 26.7593 27.9943C27.4884 27.6228 28.0812 27.03 28.4527 26.3009C28.875 25.472 28.875 24.3869 28.875 22.2167V21.9583H3.04171L3.04171 22.2167C3.04171 24.3869 3.04171 25.472 3.46406 26.3009C3.83557 27.03 4.42837 27.6228 5.1575 27.9943C5.98641 28.4167 7.07151 28.4167 9.24171 28.4167H22.675Z"/>
</g>
<path d="M16.415 26.83V4M10.7075 26.83V21.1225M10.7075 9.7075V4M22.1225 26.83V21.1225M22.1225 9.7075V4M5.00002 9.7075H27.83M5.00002 21.1225H27.83M27.83 21.3508V9.4792C27.83 7.5613 27.83 6.60235 27.4568 5.86981C27.1285 5.22545 26.6046 4.70157 25.9602 4.37325C25.2277 4 24.2687 4 22.3508 4L10.4792 4C8.56132 4 7.60237 4 6.86983 4.37325C6.22547 4.70157 5.70159 5.22545 5.37327 5.86981C5.00002 6.60235 5.00002 7.5613 5.00002 9.4792L5.00002 21.3508C5.00002 23.2687 5.00002 24.2276 5.37327 24.9602C5.70159 25.6046 6.22547 26.1284 6.86983 26.4568C7.60237 26.83 8.56132 26.83 10.4792 26.83H22.3508C24.2687 26.83 25.2277 26.83 25.9602 26.4568C26.6046 26.1284 27.1285 25.6046 27.4568 24.9602C27.83 24.2276 27.83 23.2687 27.83 21.3508Z" stroke="white" stroke-width="2" stroke-linecap="round" stroke-linejoin="round"/>
</svg>
