<svg width="31" height="24" viewBox="0 0 31 24" fill="none" xmlns="http://www.w3.org/2000/svg">
<path d="M12.1334 2.66667L9.0334 5.33333H3.1V21.3333H27.9V5.33333H21.9666L18.8666 2.66667H12.1334ZM10.85 0H20.15L23.25 2.66667H29.45C29.8611 2.66667 30.2553 2.80714 30.546 3.05719C30.8367 3.30724 31 3.64638 31 4V22.6667C31 23.0203 30.8367 23.3594 30.546 23.6095C30.2553 23.8595 29.8611 24 29.45 24H1.55C1.13891 24 0.744666 23.8595 0.453984 23.6095C0.163303 23.3594 0 23.0203 0 22.6667V4C0 3.64638 0.163303 3.30724 0.453984 3.05719C0.744666 2.80714 1.13891 2.66667 1.55 2.66667H7.75L10.85 0ZM15.5 20C13.239 20 11.0707 19.2274 9.47191 17.8521C7.87317 16.4769 6.975 14.6116 6.975 12.6667C6.975 10.7217 7.87317 8.85648 9.47191 7.48122C11.0707 6.10595 13.239 5.33333 15.5 5.33333C17.761 5.33333 19.9293 6.10595 21.5281 7.48122C23.1268 8.85648 24.025 10.7217 24.025 12.6667C24.025 14.6116 23.1268 16.4769 21.5281 17.8521C19.9293 19.2274 17.761 20 15.5 20ZM15.5 17.3333C16.9388 17.3333 18.3187 16.8417 19.3361 15.9665C20.3534 15.0913 20.925 13.9043 20.925 12.6667C20.925 11.429 20.3534 10.242 19.3361 9.36684C18.3187 8.49167 16.9388 8 15.5 8C14.0612 8 12.6813 8.49167 11.6639 9.36684C10.6466 10.242 10.075 11.429 10.075 12.6667C10.075 13.9043 10.6466 15.0913 11.6639 15.9665C12.6813 16.8417 14.0612 17.3333 15.5 17.3333Z" fill="#8000FF"/>
</svg>
