<svg width="137" height="139" viewBox="0 0 137 139" fill="none" xmlns="http://www.w3.org/2000/svg">
<g filter="url(#filter0_d_211_1650)">
<circle cx="69" cy="69" r="50" fill="#8000FF"/>
</g>
<path d="M80.62 53.94C80.46 53.94 80.3 53.9 80.16 53.82C76.32 51.84 73 51 69.02 51C65.06 51 61.3 51.94 57.88 53.82C57.4 54.08 56.8 53.9 56.52 53.42C56.3952 53.1861 56.3673 52.9126 56.4421 52.6583C56.5169 52.4039 56.6885 52.1891 56.92 52.06C60.64 50.04 64.72 49 69.02 49C73.28 49 77 49.94 81.08 52.04C81.58 52.3 81.76 52.9 81.5 53.38C81.4209 53.5467 81.2963 53.6877 81.1407 53.7868C80.985 53.8859 80.8045 53.939 80.62 53.94ZM52 64.44C51.8156 64.4417 51.6344 64.3923 51.4764 64.2973C51.3184 64.2023 51.1898 64.0654 51.1049 63.9018C51.0199 63.7381 50.982 63.5542 50.9953 63.3703C51.0085 63.1864 51.0725 63.0098 51.18 62.86C53.16 60.06 55.68 57.86 58.68 56.32C64.96 53.08 73 53.06 79.3 56.3C82.3 57.84 84.82 60.02 86.8 62.8C86.8767 62.9075 86.9314 63.0291 86.9609 63.1578C86.9904 63.2866 86.994 63.4199 86.9717 63.55C86.9494 63.6802 86.9015 63.8046 86.8309 63.9162C86.7602 64.0278 86.6681 64.1242 86.56 64.2C86.1 64.52 85.48 64.42 85.16 63.96C83.4085 61.4808 81.0821 59.4631 78.38 58.08C72.64 55.14 65.3 55.14 59.58 58.1C56.86 59.5 54.58 61.5 52.78 64.02C52.62 64.3 52.32 64.44 52 64.44ZM64.5 88.58C64.3688 88.5816 64.2388 88.5557 64.1182 88.5041C63.9977 88.4524 63.8893 88.3761 63.8 88.28C62.06 86.54 61.12 85.42 59.78 83C58.4 80.54 57.68 77.54 57.68 74.32C57.68 68.38 62.76 63.54 69 63.54C75.24 63.54 80.32 68.38 80.32 74.32C80.32 74.88 79.88 75.32 79.32 75.32C78.76 75.32 78.32 74.88 78.32 74.32C78.32 69.48 74.14 65.54 69 65.54C63.86 65.54 59.68 69.48 59.68 74.32C59.68 77.2 60.32 79.86 61.54 82.02C62.82 84.32 63.7 85.3 65.24 86.86C65.62 87.26 65.62 87.88 65.24 88.28C65.02 88.48 64.76 88.58 64.5 88.58ZM78.84 84.88C76.46 84.88 74.36 84.28 72.64 83.1C69.66 81.08 67.88 77.8 67.88 74.32C67.88 73.76 68.32 73.32 68.88 73.32C69.44 73.32 69.88 73.76 69.88 74.32C69.88 77.14 71.32 79.8 73.76 81.44C75.18 82.4 76.84 82.86 78.84 82.86C79.32 82.86 80.12 82.8 80.92 82.66C81.46 82.56 81.98 82.92 82.08 83.48C82.18 84.02 81.82 84.54 81.26 84.64C80.12 84.86 79.12 84.88 78.84 84.88ZM74.82 89C74.74 89 74.64 88.98 74.56 88.96C71.38 88.08 69.3 86.9 67.12 84.76C65.7385 83.396 64.6431 81.77 63.8979 79.9774C63.1527 78.1847 62.7726 76.2614 62.78 74.32C62.78 71.08 65.54 68.44 68.94 68.44C72.34 68.44 75.1 71.08 75.1 74.32C75.1 76.46 76.96 78.2 79.26 78.2C81.56 78.2 83.42 76.46 83.42 74.32C83.42 66.78 76.92 60.66 68.92 60.66C63.24 60.66 58.04 63.82 55.7 68.72C54.92 70.34 54.52 72.24 54.52 74.32C54.52 75.88 54.66 78.34 55.86 81.54C56.06 82.06 55.8 82.64 55.28 82.82C54.76 83.02 54.18 82.74 54 82.24C53.0363 79.7106 52.5415 77.0268 52.54 74.32C52.54 71.92 53 69.74 53.9 67.84C56.56 62.26 62.46 58.64 68.92 58.64C78.02 58.64 85.42 65.66 85.42 74.3C85.42 77.54 82.66 80.18 79.26 80.18C75.86 80.18 73.1 77.54 73.1 74.3C73.1 72.16 71.24 70.42 68.94 70.42C66.64 70.42 64.78 72.16 64.78 74.3C64.78 77.72 66.1 80.92 68.52 83.32C70.42 85.2 72.24 86.24 75.06 87.02C75.6 87.16 75.9 87.72 75.76 88.24C75.66 88.7 75.24 89 74.82 89Z" fill="white"/>
<path d="M137 68.5C137 106.332 106.332 137 68.5 137C30.6685 137 0 106.332 0 68.5C0 30.6685 30.6685 0 68.5 0C106.332 0 137 30.6685 137 68.5ZM4.44212 68.5C4.44212 103.878 33.1218 132.558 68.5 132.558C103.878 132.558 132.558 103.878 132.558 68.5C132.558 33.1218 103.878 4.44212 68.5 4.44212C33.1218 4.44212 4.44212 33.1218 4.44212 68.5Z" fill="url(#paint0_linear_211_1650)"/>
<defs>
<filter id="filter0_d_211_1650" x="3" y="7" width="132" height="132" filterUnits="userSpaceOnUse" color-interpolation-filters="sRGB">
<feFlood flood-opacity="0" result="BackgroundImageFix"/>
<feColorMatrix in="SourceAlpha" type="matrix" values="0 0 0 0 0 0 0 0 0 0 0 0 0 0 0 0 0 0 127 0" result="hardAlpha"/>
<feOffset dy="4"/>
<feGaussianBlur stdDeviation="8"/>
<feComposite in2="hardAlpha" operator="out"/>
<feColorMatrix type="matrix" values="0 0 0 0 0.0392157 0 0 0 0 0.388235 0 0 0 0 0.458824 0 0 0 0.2 0"/>
<feBlend mode="normal" in2="BackgroundImageFix" result="effect1_dropShadow_211_1650"/>
<feBlend mode="normal" in="SourceGraphic" in2="effect1_dropShadow_211_1650" result="shape"/>
</filter>
<linearGradient id="paint0_linear_211_1650" x1="69.0661" y1="-386.657" x2="69.0661" y2="148.322" gradientUnits="userSpaceOnUse">
<stop stop-color="#8000FF"/>
<stop offset="0.978449" stop-color="#8000FF" stop-opacity="0"/>
</linearGradient>
</defs>
</svg>
