<svg width="25" height="24" viewBox="0 0 25 24" fill="none" xmlns="http://www.w3.org/2000/svg">
<g clip-path="url(#clip0_211_969)">
<path d="M6.04664 14.4184L5.23971 17.4308L2.29041 17.4931C1.40901 15.8583 0.909058 13.9879 0.909058 12.0002C0.909058 10.0782 1.3765 8.26565 2.20507 6.66968H2.2057L4.8314 7.15106L5.98162 9.76101C5.74088 10.4628 5.60967 11.2163 5.60967 12.0002C5.60976 12.8511 5.76388 13.6663 6.04664 14.4184Z" fill="#FBBB00"/>
<path d="M23.8883 9.83447C24.0214 10.5356 24.0908 11.2597 24.0908 11.9998C24.0908 12.8296 24.0035 13.6391 23.8373 14.4199C23.2731 17.0769 21.7987 19.397 19.7563 21.0388L19.7557 21.0382L16.4485 20.8694L15.9804 17.9475C17.3356 17.1527 18.3948 15.9089 18.9527 14.4199H12.7547V9.83447H19.0431H23.8883Z" fill="#518EF8"/>
<path d="M19.7553 21.0386L19.7559 21.0393C17.7695 22.6359 15.2462 23.5912 12.4995 23.5912C8.08537 23.5912 4.24765 21.124 2.28992 17.4932L6.04614 14.4185C7.02499 17.0308 9.54506 18.8905 12.4995 18.8905C13.7694 18.8905 14.9591 18.5472 15.9799 17.9479L19.7553 21.0386Z" fill="#28B446"/>
<path d="M19.8983 3.07762L16.1433 6.15175C15.0868 5.49134 13.8379 5.10984 12.4999 5.10984C9.47857 5.10984 6.91136 7.0548 5.98155 9.76087L2.20559 6.66954H2.20496C4.13403 2.95026 8.02015 0.40918 12.4999 0.40918C15.3122 0.40918 17.8909 1.41098 19.8983 3.07762Z" fill="#F14336"/>
</g>
<defs>
<clipPath id="clip0_211_969">
<rect width="23.1818" height="23.1818" fill="white" transform="translate(0.909058 0.40918)"/>
</clipPath>
</defs>
</svg>
