<svg xmlns="http://www.w3.org/2000/svg" width="26" height="26" id="lock"><g fill="#fff" transform="translate(5 -1031.362)"><circle cx="8" cy="1044.362" r="13" fill="#ffa40b" fill-rule="evenodd"></circle><path style="line-height:normal;text-indent:0;text-align:start;text-decoration-line:none;text-decoration-style:solid;text-decoration-color:#000;text-transform:none;block-progression:tb;isolation:auto;mix-blend-mode:normal" fill="#ff7712" d="M16.463 25.53a13 13 0 0 0 .014-.005 13 13 0 0 0 1.234-.408 13 13 0 0 0 1.185-.531 13 13 0 0 0 1.127-.647 13 13 0 0 0 1.057-.755 13 13 0 0 0 .977-.858 13 13 0 0 0 .886-.951 13 13 0 0 0 .786-1.035 13 13 0 0 0 .68-1.108 13 13 0 0 0 .566-1.17 13 13 0 0 0 .359-.984L15.131 6.873A2.969 2.969 0 0 0 13.027 6h-.054A2.977 2.977 0 0 0 10 8.973v2.054c-1.206.915-2 2.347-2 3.973 0 1.378.561 2.628 1.467 3.533l6.996 6.996z" color="#000" font-family="sans-serif" font-weight="400" transform="translate(-5 1031.362)"></path><path d="M7.973 1A2.977 2.977 0 0 0 5 3.973v2.054C3.794 6.942 3 8.374 3 10c0 2.756 2.244 5 5 5s5-2.244 5-5c0-1.625-.792-3.058-1.998-3.973V3.973A2.98 2.98 0 0 0 8.027 1h-.054zm0 1h.054C9.128 2 10 2.872 10 3.973v1.45A4.953 4.953 0 0 0 8 5c-.712 0-1.386.154-2 .424V3.973C6 2.872 6.872 2 7.973 2ZM8 6c.244 0 .48.029.71.07.082.015.161.035.241.055.148.036.291.081.432.133.089.033.179.064.265.103.161.073.315.158.463.25.037.023.076.04.112.065a.5.5 0 0 0 .029.017A3.99 3.99 0 0 1 12 10c0 2.215-1.785 4-4 4s-4-1.785-4-4a3.99 3.99 0 0 1 1.738-3.299.5.5 0 0 0 .041-.025c.055-.037.114-.062.17-.096.128-.077.256-.152.393-.215.093-.043.19-.076.287-.111.134-.05.271-.092.412-.127A3.984 3.984 0 0 1 8 6Zm0 2c-.822 0-1.5.678-1.5 1.5 0 .411.169.79.44 1.06.155.156.348.273.56.348V13h1v-2.092c.213-.075.407-.192.563-.347A1.5 1.5 0 0 0 8 8Zm0 1c.286 0 .5.214.5.5a.495.495 0 0 1-.5.5.495.495 0 0 1-.5-.5c0-.286.214-.5.5-.5Z" color="#000" font-family="sans-serif" font-weight="400" overflow="visible" transform="translate(0 1036.362)" style="line-height:normal;text-indent:0;text-align:start;text-decoration-line:none;text-decoration-style:solid;text-decoration-color:#000;text-transform:none;block-progression:tb;isolation:auto;mix-blend-mode:normal"></path></g></svg>