<svg width="88" height="77" viewBox="0 0 88 77" fill="none" xmlns="http://www.w3.org/2000/svg">
<circle cx="1" cy="70" r="1" fill="#86EFAC"/>
<circle cx="66" cy="76" r="1" fill="#FDE047"/>
<circle cx="14" cy="4" r="1" fill="#E5E7EB"/>
<path fill-rule="evenodd" clip-rule="evenodd" d="M76.9715 23.6338C79.0454 23.4633 81.1698 23.5609 83.2282 23.6695C83.6713 23.6942 84.028 24.0382 83.993 24.4312C83.989 24.8298 83.6179 25.1317 83.2058 25.1122C81.211 25.0054 79.1516 24.904 77.174 25.0713C76.7523 25.1089 76.3546 24.816 76.2946 24.4184C76.2344 24.0212 76.5497 23.6716 76.9715 23.6338Z" fill="#FFF1EE"/>
<path fill-rule="evenodd" clip-rule="evenodd" d="M72.1772 15.3911C75.883 12.9569 79.927 10.975 83.5843 8.45029C83.9124 8.21222 84.4118 8.28154 84.6769 8.60113C84.9419 8.92101 84.8964 9.3752 84.5372 9.60799C80.8785 12.1414 76.833 14.1319 73.1257 16.5748C72.7677 16.8008 72.2704 16.7202 72.0066 16.3929C71.7738 16.0713 71.8192 15.6171 72.1772 15.3911Z" fill="#FFF1EE"/>
<path fill-rule="evenodd" clip-rule="evenodd" d="M68.1357 2.91196C67.7521 4.60112 67.3687 6.29031 66.985 7.97976C66.9185 8.37031 66.4943 8.60835 66.0628 8.51531C65.6314 8.42199 65.3777 8.03668 65.4443 7.64585C65.8284 5.95385 66.2122 4.26211 66.5963 2.5704C66.6938 2.18514 67.1175 1.94906 67.5486 2.04436C67.9487 2.13438 68.2332 2.52699 68.1357 2.91196Z" fill="#FFF1EE"/>
<path fill-rule="evenodd" clip-rule="evenodd" d="M74.9487 22.6629C77.0391 22.491 79.1802 22.5894 81.2549 22.6989C81.7015 22.7238 82.0611 23.0705 82.0258 23.4666C82.0218 23.8683 81.6477 24.1726 81.2324 24.153C79.2218 24.0454 77.1461 23.9431 75.1528 24.1118C74.7277 24.1496 74.327 23.8544 74.2664 23.4538C74.2058 23.0534 74.5235 22.701 74.9487 22.6629Z" fill="#8000FF"/>
<path fill-rule="evenodd" clip-rule="evenodd" d="M70.1163 14.3547C73.8514 11.9013 77.9275 9.90362 81.6137 7.35896C81.9444 7.119 82.4478 7.18888 82.7149 7.511C82.9821 7.8334 82.9362 8.2912 82.5742 8.52583C78.8864 11.0793 74.8089 13.0855 71.0723 15.5478C70.7115 15.7756 70.2102 15.6943 69.9443 15.3645C69.7097 15.0403 69.7555 14.5825 70.1163 14.3547Z" fill="#8000FF"/>
<path fill-rule="evenodd" clip-rule="evenodd" d="M66.0431 1.77676C65.6565 3.4793 65.27 5.18186 64.8833 6.88469C64.8163 7.27832 64.3887 7.51826 63.9538 7.42448C63.519 7.33041 63.2633 6.94205 63.3304 6.54813C63.7175 4.84274 64.1044 3.1376 64.4915 1.43249C64.5898 1.04419 65.0169 0.80623 65.4514 0.902294C65.8546 0.993027 66.1414 1.38874 66.0431 1.77676Z" fill="#8000FF"/>
</svg>
