<svg width="31" height="31" viewBox="0 0 31 31" fill="none" xmlns="http://www.w3.org/2000/svg">
<path d="M15.5 0C12.4344 0 9.43763 0.909055 6.88867 2.61222C4.33971 4.31538 2.35303 6.73615 1.17987 9.5684C0.00671604 12.4007 -0.300236 15.5172 0.297835 18.5239C0.895906 21.5306 2.37213 24.2924 4.53984 26.4601C6.70755 28.6279 9.46941 30.1041 12.4761 30.7022C15.4828 31.3002 18.5993 30.9933 21.4316 29.8201C24.2638 28.647 26.6846 26.6603 28.3878 24.1113C30.0909 21.5624 31 18.5656 31 15.5C31 11.3891 29.367 7.44665 26.4601 4.53984C23.5533 1.63303 19.6109 0 15.5 0ZM15.5 4.65C16.4197 4.65 17.3187 4.92272 18.0834 5.43367C18.8481 5.94462 19.4441 6.67085 19.796 7.52052C20.148 8.3702 20.2401 9.30515 20.0606 10.2072C19.8812 11.1092 19.4384 11.9377 18.788 12.588C18.1377 13.2384 17.3092 13.6812 16.4072 13.8606C15.5052 14.0401 14.5702 13.948 13.7205 13.596C12.8708 13.2441 12.1446 12.6481 11.6337 11.8834C11.1227 11.1187 10.85 10.2197 10.85 9.29999C10.8502 8.06685 11.3402 6.88427 12.2122 6.01237C13.0842 5.14047 14.2669 4.65 15.5 4.65ZM15.5 27.0359C13.6631 27.0275 11.8559 26.571 10.2353 25.7061C8.61467 24.8412 7.22953 23.594 6.20001 22.0726C6.27428 18.9726 12.4 17.2663 15.5 17.2663C18.6 17.2663 24.7257 18.9726 24.8 22.0726C23.7693 23.5929 22.3839 24.8392 20.7636 25.704C19.1432 26.5687 17.3366 27.0258 15.5 27.0359Z" fill="white"/>
</svg>
