<svg xmlns="http://www.w3.org/2000/svg" viewBox="0 0 24 24" id="Dustbin"><defs><linearGradient id="a" x1="-10.26" x2="32.52" y1="-9.78" y2="33" gradientUnits="userSpaceOnUse"><stop offset="0" stop-color="#ffffff" class="stopColor9cecfb svgShape"></stop><stop offset=".51" stop-color="#aeaeae" class="stopColor65c7f7 svgShape"></stop><stop offset="1" stop-color="#6a6a6a" class="stopColor0052d4 svgShape"></stop></linearGradient></defs><path fill="url(#a)" d="M16.14,23H7.86a3,3,0,0,1-3-2.79L3.94,7A1,1,0,0,1,4,5H8V4a3,3,0,0,1,3-3h2a3,3,0,0,1,3,3V5h4a1,1,0,0,1,.06,2l-.93,13.21A3,3,0,0,1,16.14,23ZM5.94,7l.93,13.07a1,1,0,0,0,1,.93h8.28a1,1,0,0,0,1-.93L18.06,7ZM10,5h4V4a1,1,0,0,0-1-1H11a1,1,0,0,0-1,1Zm4,13a1,1,0,0,1-1-1V11a1,1,0,0,1,2,0v6A1,1,0,0,1,14,18Zm-4,0a1,1,0,0,1-1-1V11a1,1,0,0,1,2,0v6A1,1,0,0,1,10,18Z"></path></svg>