<svg xmlns="http://www.w3.org/2000/svg" viewBox="0 0 32 32" id="gallery"><g fill="#ffffff" class="color000000 svgShape"><path d="M27.62,27H4.38a3.28,3.28,0,0,1-1.54-.38,3.31,3.31,0,0,1-1.84-3V18.5a1,1,0,0,1,1-1H2a1,1,0,0,1,1,1v5.12a1.34,1.34,0,0,0,.75,1.22,1.32,1.32,0,0,0,.63.16H27.62A1.36,1.36,0,0,0,29,23.62V8.38A1.38,1.38,0,0,0,27.62,7H4.37A1.37,1.37,0,0,0,3,8.37v4.21a1,1,0,0,1-1,1H2a1,1,0,0,1-1-1V8.38A3.39,3.39,0,0,1,4.38,5H27.62A3.38,3.38,0,0,1,31,8.38V23.62A3.36,3.36,0,0,1,27.62,27Z" fill="#ffffff" class="color000000 svgShape"></path><path d="M22.19,27H4.38a1.45,1.45,0,0,1-1.18-.59l-1.08-.57.81-.93,6.62-8a2.61,2.61,0,0,1,2-1h0a2.61,2.61,0,0,1,2,.92ZM5.45,25H17.87L12,18.12a.62.62,0,0,0-.47-.22.61.61,0,0,0-.47.22Z" fill="#ffffff" class="color000000 svgShape"></path><path d="M27.62,27H19.57l-3.72-4.39,4.92-5.8a2.59,2.59,0,0,1,2-.93h0a2.59,2.59,0,0,1,2,.94l5.64,6.66a2.16,2.16,0,0,1,.37.6l.16.37-.15.38A3.37,3.37,0,0,1,27.62,27Zm-7.13-2h7.13a1.38,1.38,0,0,0,1-.47l-5.44-6.42a.6.6,0,0,0-.47-.22.59.59,0,0,0-.46.22l-3.83,4.51Z" fill="#ffffff" class="color000000 svgShape"></path><circle cx="17.16" cy="11.58" r="2" fill="#ffffff" class="color000000 svgShape"></circle></g></svg>