<svg xmlns="http://www.w3.org/2000/svg" enable-background="new 0 0 64 64" viewBox="0 0 64 64" id="Clock"><path fill="#ffffff" d="M54.65,18.09l-0.56-0.72l2.32-2.32c0.21-0.21,0.33-0.49,0.33-0.79c0-0.3-0.12-0.59-0.34-0.81l-2.42-2.41
		c-0.21-0.21-0.49-0.33-0.8-0.33c-0.3,0-0.59,0.12-0.8,0.33l-2.31,2.31l-0.72-0.55c-3.97-3.07-8.7-5.03-13.66-5.67l-0.9-0.12V4.76
		h2.96c0.63,0,1.14-0.51,1.14-1.14V1.14C38.9,0.51,38.39,0,37.77,0H26.23c-0.63,0-1.14,0.51-1.14,1.14v2.49
		c0,0.63,0.51,1.14,1.14,1.14h2.96v2.26l-0.9,0.12C14.13,8.96,3.44,21.13,3.44,35.44C3.44,51.19,16.25,64,31.99,64
		c15.75,0,28.56-12.81,28.56-28.56C60.56,29.09,58.52,23.09,54.65,18.09z M31.99,58.16c-12.52,0-22.71-10.19-22.71-22.72
		c0-12.52,10.19-22.71,22.71-22.71c12.53,0,22.72,10.19,22.72,22.71C54.71,47.97,44.52,58.16,31.99,58.16z" class="color2a2f64 svgShape"></path><path fill="#ffffff" d="M32 20.87c.74 0 1.34-.6 1.34-1.34v-3.48c0-.74-.6-1.34-1.34-1.34-.74 0-1.34.6-1.34 1.34v3.48C30.66 20.27 31.26 20.87 32 20.87zM16.09 34.1h-3.48c-.74 0-1.34.6-1.34 1.34 0 .74.6 1.34 1.34 1.34h3.48c.74 0 1.34-.6 1.34-1.34C17.43 34.7 16.83 34.1 16.09 34.1zM32 50.01c-.74 0-1.34.6-1.34 1.34v3.48c0 .74.6 1.34 1.34 1.34.74 0 1.34-.6 1.34-1.34v-3.48C33.34 50.61 32.74 50.01 32 50.01zM51.39 34.1h-3.48c-.74 0-1.34.6-1.34 1.34 0 .74.6 1.34 1.34 1.34h3.48c.74 0 1.34-.6 1.34-1.34C52.73 34.7 52.13 34.1 51.39 34.1zM39.7 21.97c-.2-.12-.43-.18-.67-.18-.48 0-.93.26-1.17.68l-5.23 9.15c-.21-.04-.43-.06-.65-.06-2.13 0-3.87 1.73-3.87 3.87 0 2.14 1.74 3.87 3.87 3.87 2.14 0 3.87-1.73 3.87-3.87 0-.93-.35-1.79-.91-2.46l5.24-9.17c.18-.31.22-.67.13-1.02C40.23 22.44 40.01 22.15 39.7 21.97z" class="color2a2f64 svgShape"></path></svg>