<svg width="29" height="27" viewBox="0 0 29 27" fill="" xmlns="http://www.w3.org/2000/svg">
<path fill-rule="evenodd" clip-rule="evenodd" d="M5.86003 9.13315C3.74188 10.3202 3.01615 12.9492 4.23906 15.0052C4.9229 16.1549 5.98406 16.9309 7.12203 17.2037C5.55424 18.5266 5.11886 20.7831 6.19641 22.5947C7.41933 24.6508 10.1278 25.3552 12.246 24.1682L22.7902 18.259C24.9083 17.072 25.6341 14.443 24.4111 12.3869C23.7364 11.2526 22.6096 10.5297 21.3791 10.3088C23.0675 9.00594 23.5648 6.66524 22.4538 4.79744C21.2309 2.74142 18.5224 2.03697 16.4043 3.22402L5.86003 9.13315ZM18.3644 10.812L20.2793 9.73884C21.8679 8.84855 22.4122 6.87679 21.495 5.33477C20.5778 3.79276 18.5464 3.26442 16.9578 4.15471L6.4136 10.0638C4.82499 10.9541 4.28069 12.9259 5.19788 14.4679C6.11506 16.0099 7.8174 16.7226 9.25562 15.9166L9.8092 16.8473L8.37096 17.6533C6.78234 18.5436 6.23804 20.5154 7.15523 22.0574C8.07242 23.5994 10.1038 24.1278 11.6924 23.2375L22.2366 17.3283C23.8252 16.4381 24.3695 14.4663 23.4523 12.9243C22.5351 11.3823 20.5038 10.8539 18.9152 11.7442L18.3616 10.8135C18.3625 10.813 18.3634 10.8125 18.3644 10.812Z" fill="white"/>
<path d="M4.23906 15.0052L3.80933 15.2608L4.23906 15.0052ZM5.86003 9.13315L6.10447 9.56933L5.86003 9.13315ZM7.12203 17.2037L7.44448 17.5858L8.20036 16.948L7.23858 16.7174L7.12203 17.2037ZM6.19641 22.5947L6.62614 22.3391L6.19641 22.5947ZM12.246 24.1682L12.4904 24.6043L12.246 24.1682ZM22.7902 18.259L22.5457 17.8228L22.7902 18.259ZM24.4111 12.3869L24.8409 12.1313L24.4111 12.3869ZM21.3791 10.3088L21.0736 9.91297L20.181 10.6018L21.2908 10.801L21.3791 10.3088ZM22.4538 4.79744L22.0241 5.05304L22.4538 4.79744ZM16.4043 3.22402L16.1598 2.78784L16.4043 3.22402ZM18.3644 10.812L18.6084 11.2484L18.6088 11.2482L18.3644 10.812ZM20.2793 9.73884L20.0348 9.30266L20.2793 9.73884ZM16.9578 4.15471L16.7134 3.71853L16.9578 4.15471ZM6.4136 10.0638L6.65804 10.5L6.4136 10.0638ZM5.19788 14.4679L4.76815 14.7235L5.19788 14.4679ZM9.25562 15.9166L9.68535 15.661L9.43626 15.2422L9.01118 15.4805L9.25562 15.9166ZM9.8092 16.8473L10.0536 17.2835L10.5012 17.0327L10.2389 16.5917L9.8092 16.8473ZM8.37096 17.6533L8.6154 18.0895L8.6154 18.0895L8.37096 17.6533ZM11.6924 23.2375L11.4479 22.8013L11.4479 22.8013L11.6924 23.2375ZM22.2366 17.3283L22.481 17.7645L22.2366 17.3283ZM18.9152 11.7442L18.4855 11.9998L18.7345 12.4186L19.1596 12.1804L18.9152 11.7442ZM18.3616 10.8135L18.1171 10.3774L17.6696 10.6282L17.9319 11.0691L18.3616 10.8135ZM4.66879 14.7496C3.59334 12.9415 4.22523 10.6225 6.10447 9.56933L5.61559 8.69698C3.25853 10.0179 2.43896 12.9569 3.80933 15.2608L4.66879 14.7496ZM7.23858 16.7174C6.23977 16.478 5.28792 15.7905 4.66879 14.7496L3.80933 15.2608C4.55789 16.5194 5.72836 17.3838 7.00548 17.6899L7.23858 16.7174ZM6.62614 22.3391C5.67782 20.7448 6.05726 18.7564 7.44448 17.5858L6.79958 16.8215C5.05122 18.2968 4.55989 20.8214 5.76669 22.8503L6.62614 22.3391ZM12.0015 23.732C10.114 24.7898 7.70702 24.1564 6.62614 22.3391L5.76669 22.8503C7.13164 25.1452 10.1416 25.9206 12.4904 24.6043L12.0015 23.732ZM22.5457 17.8228L12.0015 23.732L12.4904 24.6043L23.0346 18.6952L22.5457 17.8228ZM23.9814 12.6425C25.0569 14.4506 24.425 16.7697 22.5457 17.8228L23.0346 18.6952C25.3917 17.3743 26.2113 14.4353 24.8409 12.1313L23.9814 12.6425ZM21.2908 10.801C22.3882 10.9979 23.3857 11.641 23.9814 12.6425L24.8409 12.1313C24.0872 10.8642 22.831 10.0614 21.4674 9.81668L21.2908 10.801ZM22.0241 5.05304C23.0016 6.69659 22.5683 8.75961 21.0736 9.91297L21.6846 10.7047C23.5667 9.25227 24.1279 6.63389 22.8835 4.54184L22.0241 5.05304ZM16.6487 3.66019C18.5362 2.60238 20.9432 3.23582 22.0241 5.05304L22.8835 4.54184C21.5186 2.24702 18.5086 1.47157 16.1598 2.78784L16.6487 3.66019ZM6.10447 9.56933L16.6487 3.66019L16.1598 2.78784L5.61559 8.69698L6.10447 9.56933ZM18.6088 11.2482L20.5237 10.175L20.0348 9.30266L18.1199 10.3758L18.6088 11.2482ZM20.5237 10.175C22.3512 9.15084 22.9894 6.8691 21.9247 5.07917L21.0653 5.59037C21.835 6.88447 21.3845 8.54627 20.0348 9.30266L20.5237 10.175ZM21.9247 5.07917C20.8655 3.29836 18.5326 2.69901 16.7134 3.71853L17.2023 4.59088C18.5603 3.82983 20.2901 4.28716 21.0653 5.59037L21.9247 5.07917ZM16.7134 3.71853L6.16916 9.62767L6.65804 10.5L17.2023 4.59088L16.7134 3.71853ZM6.16916 9.62767C4.34164 10.6518 3.7035 12.9336 4.76815 14.7235L5.62761 14.2123C4.85788 12.9182 5.30834 11.2564 6.65804 10.5L6.16916 9.62767ZM4.76815 14.7235C5.7754 16.417 7.75039 17.3334 9.50006 16.3528L9.01118 15.4805C7.88441 16.1119 6.45472 15.6029 5.62761 14.2123L4.76815 14.7235ZM8.82589 16.1722L9.37947 17.1029L10.2389 16.5917L9.68535 15.661L8.82589 16.1722ZM9.56476 16.4112L8.12652 17.2172L8.6154 18.0895L10.0536 17.2835L9.56476 16.4112ZM8.12652 17.2172C6.29899 18.2413 5.66085 20.5231 6.7255 22.313L7.58496 21.8018C6.81523 20.5077 7.26569 18.8459 8.6154 18.0895L8.12652 17.2172ZM6.7255 22.313C7.78472 24.0938 10.1176 24.6932 11.9368 23.6736L11.4479 22.8013C10.0899 23.5623 8.36011 23.105 7.58496 21.8018L6.7255 22.313ZM11.9368 23.6736L22.481 17.7645L21.9922 16.8922L11.4479 22.8013L11.9368 23.6736ZM22.481 17.7645C24.3086 16.7403 24.9467 14.4586 23.8821 12.6687L23.0226 13.1799C23.7923 14.474 23.3419 16.1358 21.9922 16.8922L22.481 17.7645ZM23.8821 12.6687C22.8228 10.8879 20.49 10.2885 18.6707 11.308L19.1596 12.1804C20.5176 11.4193 22.2475 11.8767 23.0226 13.1799L23.8821 12.6687ZM19.3449 11.4886L18.7913 10.5579L17.9319 11.0691L18.4855 11.9998L19.3449 11.4886ZM18.6061 11.2497C18.6069 11.2492 18.6076 11.2488 18.6079 11.2486C18.6084 11.2484 18.6085 11.2483 18.6084 11.2484L18.1203 10.3756C18.1193 10.3761 18.1185 10.3766 18.118 10.3769C18.1174 10.3772 18.1173 10.3773 18.1171 10.3774L18.6061 11.2497Z" fill="white"/>
<path d="M12.204 11.9947C12.204 11.617 12.6197 11.3841 12.9567 11.5729L17.4359 14.0832C17.7767 14.2741 17.7814 14.7522 17.4444 14.9411L12.9652 17.4513C12.6281 17.6402 12.204 17.3972 12.204 17.0152L12.204 11.9947Z" fill="white"/>
</svg>
