<svg width="20" height="20" viewBox="0 0 25 25" fill="" xmlns="http://www.w3.org/2000/svg">
<path d="M12.415 23.83V0.999993M6.7075 23.83V18.1225M6.7075 6.70749V0.999993M18.1225 23.83V18.1225M18.1225 6.70749V0.999993M1 6.70749H23.83M1 18.1225H23.83M23.83 18.3508V6.47919C23.83 4.56129 23.83 3.60234 23.4568 2.8698C23.1284 2.22544 22.6046 1.70156 21.9602 1.37324C21.2276 0.999992 20.2687 0.999992 18.3508 0.999992L6.4792 0.999993C4.5613 0.999993 3.60235 0.999993 2.86981 1.37324C2.22545 1.70156 1.70157 2.22544 1.37325 2.8698C1 3.60234 1 4.56129 1 6.47919L1 18.3508C1 20.2687 1 21.2276 1.37325 21.9602C1.70157 22.6045 2.22545 23.1284 2.86981 23.4567C3.60235 23.83 4.5613 23.83 6.4792 23.83H18.3508C20.2687 23.83 21.2276 23.83 21.9602 23.4567C22.6046 23.1284 23.1284 22.6045 23.4568 21.9602C23.83 21.2276 23.83 20.2687 23.83 18.3508Z" stroke="white" stroke-width="2" stroke-linecap="round" stroke-linejoin="round"/>
</svg>
