<svg width="32" height="24" viewBox="0 0 32 31" fill="" xmlns="http://www.w3.org/2000/svg">
<path d="M9.10934 6.37913C9.61377 6.88356 9.61377 7.70139 9.10934 8.20582C5.07263 12.2425 5.07263 18.7874 9.10934 22.8241C9.61377 23.3285 9.61377 24.1463 9.10934 24.6508C8.60492 25.1552 7.78708 25.1552 7.28265 24.6508C2.23708 19.6052 2.23708 11.4247 7.28265 6.37913C7.78708 5.8747 8.60492 5.8747 9.10934 6.37913ZM25.5543 6.37913C30.5999 11.4247 30.5999 19.6052 25.5543 24.6508C25.0499 25.1552 24.232 25.1552 23.7276 24.6508C23.2232 24.1463 23.2232 23.3285 23.7276 22.8241C27.7643 18.7874 27.7643 12.2425 23.7276 8.20582C23.2232 7.70139 23.2232 6.88356 23.7276 6.37913C24.232 5.8747 25.0499 5.8747 25.5543 6.37913ZM12.9413 10.0906C13.4457 10.595 13.4457 11.4128 12.9413 11.9173C10.9638 13.8948 10.9638 17.1009 12.9413 19.0784C13.4457 19.5828 13.4457 20.4007 12.9413 20.9051C12.4368 21.4095 11.619 21.4095 11.1146 20.9051C8.12823 17.9187 8.12823 13.0769 11.1146 10.0906C11.619 9.58615 12.4368 9.58615 12.9413 10.0906ZM21.9291 10.0906C24.9154 13.0769 24.9154 17.9187 21.9291 20.9051C21.4247 21.4095 20.6068 21.4095 20.1024 20.9051C19.598 20.4007 19.598 19.5828 20.1024 19.0784C22.0799 17.1009 22.0799 13.8948 20.1024 11.9173C19.598 11.4128 19.598 10.595 20.1024 10.0906C20.6068 9.58615 21.4247 9.58615 21.9291 10.0906ZM16.5218 13.6677C17.5919 13.6677 18.4593 14.5352 18.4593 15.6052C18.4593 16.6753 17.5919 17.5427 16.5218 17.5427C15.4518 17.5427 14.5843 16.6753 14.5843 15.6052C14.5843 14.5352 15.4518 13.6677 16.5218 13.6677Z" fill="white"/>
</svg>
