<svg width="23" height="25" viewBox="0 0 23 25" fill="" xmlns="http://www.w3.org/2000/svg">
<path d="M20.7484 6.38502L15.5817 1.77377C13.2567 -0.305815 9.74335 -0.305815 7.41835 1.77377L2.25169 6.38502C0.947104 7.54752 0.197937 9.21377 0.197937 10.9704V19.1854C0.197937 21.8979 2.36794 24.1067 5.04169 24.1067H17.9584C20.6321 24.1067 22.8021 21.8979 22.8021 19.1854V10.9704C22.8021 9.22669 22.0529 7.54752 20.7484 6.38502ZM14.4063 22.1563H8.59377V17.9584C8.59377 16.3567 9.89835 15.0521 11.5 15.0521C13.1017 15.0521 14.4063 16.3567 14.4063 17.9584V22.1563ZM20.8646 19.1725C20.8646 20.8129 19.56 22.1563 17.9584 22.1563H16.3438V17.9584C16.3438 15.2846 14.1738 13.1146 11.5 13.1146C8.82627 13.1146 6.65627 15.2846 6.65627 17.9584V22.1563H5.04169C3.44002 22.1563 2.13544 20.8259 2.13544 19.1725V10.9575C2.13544 9.75627 2.6521 8.6196 3.54335 7.81877L8.71002 3.20752C10.2988 1.78668 12.7013 1.78668 14.29 3.20752L19.4567 7.81877C20.3479 8.6196 20.8646 9.75627 20.8646 10.9575V19.1725Z" fill="white"/>
</svg>
