<svg width="25" height="24" viewBox="0 0 25 24" fill="none" xmlns="http://www.w3.org/2000/svg">
<g clip-path="url(#clip0_303_12955)">
<path fill-rule="evenodd" clip-rule="evenodd" d="M7.05551 8.11184C5.62063 8.94027 5.129 10.775 5.95743 12.2099C6.38808 12.9558 7.0898 13.4466 7.86769 13.63C8.06721 13.6771 8.2178 13.8411 8.24763 14.0439C8.27745 14.2467 8.18047 14.4472 8.00295 14.5497L6.80552 15.241C5.37065 16.0694 4.87902 17.9042 5.70745 19.3391C6.53588 20.774 8.37065 21.2656 9.80552 20.4372L17.5998 15.9372C19.0346 15.1087 19.5263 13.274 18.6978 11.8391C18.2672 11.0932 17.5655 10.6024 16.7876 10.419C16.5881 10.372 16.4375 10.2079 16.4076 10.0051C16.3778 9.80228 16.4748 9.60182 16.6523 9.49932L17.8497 8.80799C19.2846 7.97956 19.7762 6.14479 18.9478 4.70991C18.1194 3.27504 16.2846 2.78341 14.8497 3.61184L7.05551 8.11184ZM5.0914 12.7099C3.98684 10.7967 4.64234 8.35038 6.55551 7.24581L14.3497 2.74581C16.2629 1.64124 18.7093 2.29674 19.8138 4.20991C20.9184 6.12308 20.2629 8.56945 18.3497 9.67402L18.0508 9.8466C18.6605 10.1865 19.1895 10.6906 19.5639 11.3391C20.6684 13.2523 20.0129 15.6986 18.0998 16.8032L10.3055 21.3032C8.39235 22.4078 5.94599 21.7523 4.84142 19.8391C3.73685 17.9259 4.39235 15.4796 6.30552 14.375L6.60445 14.2024C5.99473 13.8625 5.4658 13.3584 5.0914 12.7099Z" fill="white"/>
<path d="M15.5 12.0001L11 14.5981L11 9.40198L15.5 12.0001Z" fill="white"/>
</g>
<defs>
<clipPath id="clip0_303_12955">
<rect width="24" height="24" fill="white" transform="translate(0.5)"/>
</clipPath>
</defs>
</svg>
