<svg width="13" height="7" viewBox="0 0 13 7" fill="none" xmlns="http://www.w3.org/2000/svg">
<path fill-rule="evenodd" clip-rule="evenodd" d="M0.974686 3.63997C0.974686 3.63997 3.63952 7.00419 6.92676 7.00419C10.214 7.00419 12.8788 3.63997 12.8788 3.63997C12.8788 3.63997 10.214 0.275757 6.92676 0.275757C3.63952 0.275757 0.974686 3.63997 0.974686 3.63997ZM2.3763 3.63998C2.63431 3.38274 2.9659 3.07764 3.35508 2.77375C4.36064 1.98856 5.62313 1.3109 6.92676 1.3109C8.2304 1.3109 9.49288 1.98856 10.4984 2.77375C10.8876 3.07764 11.2192 3.38274 11.4772 3.63998C11.2192 3.89721 10.8876 4.20231 10.4984 4.5062C9.49288 5.29139 8.2304 5.96905 6.92676 5.96905C5.62313 5.96905 4.36064 5.29139 3.35508 4.5062C2.9659 4.20231 2.63431 3.89721 2.3763 3.63998Z" fill="white"/>
<path d="M5.11523 3.63993C5.11523 4.6404 5.92627 5.45143 6.92673 5.45143C7.9272 5.45143 8.73824 4.6404 8.73824 3.63993C8.73824 2.63947 7.9272 1.82843 6.92673 1.82843C5.92627 1.82843 5.11523 2.63947 5.11523 3.63993Z" fill="white"/>
</svg>
