<svg width="124" height="345" viewBox="0 0 124 345" fill="none" xmlns="http://www.w3.org/2000/svg">
<g filter="url(#filter0_d_146_384)">
<path d="M64.4692 44.6623C63.0354 44.0002 61.4821 43.6236 59.8982 43.5539C58.3142 43.4843 56.7307 43.723 55.238 44.2565C53.7454 44.7899 52.3728 45.6076 51.1988 46.6628C50.0247 47.7181 49.0722 48.9902 48.3957 50.4065L47.1425 53.0282C47.0587 53.2036 46.8481 53.2789 46.6705 53.1969L44.0157 51.9718C41.1197 50.6354 37.7993 50.4898 34.7849 51.567C31.7705 52.6443 29.3091 54.8561 27.9421 57.716C26.5752 60.5759 26.4146 63.8495 27.4958 66.8167C28.577 69.784 30.8113 72.2017 33.7074 73.5382L58.201 84.8413C58.3786 84.9232 58.5892 84.848 58.673 84.6726L70.2345 60.4845C70.9117 59.0685 71.2998 57.5359 71.3766 55.9743C71.4533 54.4127 71.2173 52.8527 70.6819 51.3834C70.1465 49.914 69.3223 48.5642 68.2563 47.411C67.1903 46.2578 65.9035 45.3238 64.4692 44.6623Z" fill="url(#paint0_radial_146_384)"/>
<path d="M113.891 35.658C113.237 34.2393 112.304 32.9638 111.147 31.9044C109.989 30.8449 108.63 30.0223 107.146 29.4835C105.661 28.9447 104.082 28.7003 102.497 28.7643C100.912 28.8282 99.3525 29.1992 97.9082 29.8562L95.2342 31.0717C95.0553 31.153 94.8459 31.077 94.7648 30.9013L93.553 28.2752C92.2311 25.4105 89.8045 23.1898 86.8072 22.1018C83.8098 21.0137 80.4872 21.1474 77.5703 22.4734C74.6533 23.7993 72.381 26.209 71.2531 29.1722C70.1252 32.1355 70.2343 35.4096 71.5562 38.2743L82.7367 62.5033C82.8177 62.679 83.0271 62.755 83.206 62.6737L107.877 51.459C109.321 50.8028 110.623 49.8734 111.707 48.7241C112.791 47.5747 113.637 46.2279 114.195 44.7605C114.754 43.2932 115.014 41.734 114.962 40.1722C114.91 38.6104 114.546 37.0764 113.891 35.658Z" fill="url(#paint1_radial_146_384)"/>
<path d="M95.5194 92.3951C95.143 91.4976 94.5902 90.6836 93.8928 89.9993C93.1953 89.3151 92.3667 88.7741 91.4544 88.4072C90.5421 88.0403 89.5639 87.8548 88.5758 87.8612C87.5876 87.8677 86.6088 88.0659 85.6953 88.4446L84.1279 89.094C83.9462 89.1693 83.7394 89.0861 83.6645 88.9077L83.0183 87.3681C82.2578 85.556 80.7955 84.1218 78.9531 83.381C77.1107 82.6401 75.0392 82.6533 73.1943 83.4177C71.3493 84.1821 69.8821 85.635 69.1153 87.4569C68.3485 89.2787 68.345 91.3202 69.1056 93.1323L75.4872 108.337C75.562 108.515 75.7689 108.599 75.9505 108.523L91.4307 102.11C92.3444 101.731 93.1749 101.18 93.8749 100.487C94.5749 99.794 95.1306 98.9729 95.5103 98.0708C95.89 97.1687 96.0863 96.2031 96.0878 95.2292C96.0894 94.2553 95.8962 93.2923 95.5194 92.3951Z" fill="url(#paint2_radial_146_384)"/>
<path d="M104.563 124.669C104.213 123.761 103.685 122.931 103.008 122.227C102.331 121.524 101.518 120.959 100.617 120.567C99.7163 120.174 98.7441 119.961 97.7564 119.94C96.7686 119.918 95.7846 120.089 94.8605 120.441L93.2752 121.046C93.0914 121.116 92.8869 121.027 92.8173 120.847L92.2166 119.289C91.5095 117.456 90.09 115.981 88.2703 115.188C86.4507 114.396 84.38 114.35 82.5138 115.062C80.6476 115.774 79.1387 117.185 78.3191 118.985C77.4995 120.785 77.4363 122.826 78.1434 124.659L84.0765 140.04C84.1461 140.221 84.3506 140.31 84.5344 140.239L100.193 134.265C101.117 133.913 101.963 133.385 102.683 132.712C103.403 132.039 103.982 131.234 104.388 130.343C104.794 129.452 105.019 128.492 105.049 127.518C105.079 126.545 104.914 125.576 104.563 124.669Z" fill="url(#paint3_radial_146_384)"/>
<path d="M59.7926 107.785C58.3893 107.33 56.9078 107.152 55.4329 107.262C53.9579 107.372 52.5184 107.767 51.1966 108.424C49.8748 109.082 48.6966 109.989 47.7292 111.094C46.7618 112.199 46.0243 113.481 45.5588 114.865L44.7042 117.404C44.6422 117.588 44.4414 117.688 44.2546 117.628L41.6802 116.794C38.8459 115.877 35.754 116.107 33.0846 117.435C30.4153 118.763 28.3871 121.079 27.4463 123.875C26.5055 126.67 26.7291 129.715 28.068 132.341C29.4069 134.966 31.7513 136.956 34.5856 137.874L58.5332 145.626C58.72 145.687 58.9208 145.587 58.9828 145.403L66.9319 121.784C67.3981 120.4 67.5833 118.94 67.4767 117.487C67.3702 116.034 66.9742 114.617 66.3112 113.317C65.6482 112.017 64.7313 110.86 63.6128 109.91C62.4943 108.961 61.1962 108.239 59.7926 107.785Z" fill="url(#paint4_radial_146_384)"/>
<path d="M105.658 165.725C105.493 164.767 105.138 163.852 104.612 163.032C104.087 162.212 103.402 161.503 102.596 160.947C101.79 160.39 100.879 159.996 99.9152 159.787C98.9514 159.578 97.9535 159.559 96.9786 159.73L95.3082 160.023C95.1134 160.057 94.9292 159.93 94.8962 159.738L94.6137 158.097C94.2807 156.162 93.1792 154.443 91.5516 153.319C89.924 152.194 87.9036 151.757 85.9348 152.102C83.966 152.447 82.2101 153.546 81.0534 155.159C79.8967 156.771 79.434 158.764 79.767 160.699L82.5607 176.933C82.5936 177.124 82.7779 177.251 82.9726 177.217L99.4898 174.322C100.465 174.152 101.398 173.794 102.235 173.269C103.073 172.745 103.799 172.064 104.372 171.266C104.945 170.467 105.353 169.567 105.574 168.616C105.794 167.666 105.823 166.683 105.658 165.725Z" fill="url(#paint5_radial_146_384)"/>
<path d="M49.1257 222.229C48.2019 221.886 47.2179 221.727 46.2301 221.759C45.2424 221.792 44.27 222.016 43.3688 222.418C42.4675 222.821 41.6549 223.394 40.9775 224.105C40.3 224.817 39.7709 225.652 39.4205 226.564L38.8189 228.127C38.7492 228.309 38.5446 228.4 38.3607 228.332L36.7759 227.745C34.91 227.053 32.8393 227.122 31.0192 227.935C29.1992 228.748 27.7788 230.239 27.0706 232.08C26.3625 233.921 26.4245 235.961 27.2431 237.751C28.0617 239.542 29.5698 240.936 31.4356 241.628L47.0906 247.429C47.2745 247.497 47.4791 247.405 47.5488 247.224L53.4906 231.777C53.8415 230.866 54.007 229.896 53.9775 228.922C53.948 227.949 53.7242 226.992 53.3189 226.105C52.9135 225.218 52.3346 224.42 51.6151 223.755C50.8956 223.09 50.0497 222.571 49.1257 222.229Z" fill="url(#paint6_radial_146_384)"/>
<path d="M66.4732 163.893C65.0029 162.982 63.3636 162.366 61.6491 162.081C59.9345 161.795 58.1782 161.846 56.4805 162.231C54.7828 162.615 53.177 163.325 51.7548 164.32C50.3327 165.315 49.122 166.576 48.192 168.03L46.4507 170.752C46.3459 170.916 46.1283 170.965 45.9627 170.863L43.2104 169.158C40.2408 167.318 36.6464 166.721 33.218 167.497C29.7896 168.273 26.8081 170.358 24.9292 173.295C23.0504 176.232 22.4282 179.779 23.1995 183.157C23.9708 186.534 26.0724 189.465 29.0421 191.305L54.1884 206.882C54.354 206.984 54.5716 206.935 54.6764 206.771L70.5861 181.902C71.5168 180.448 72.1487 178.829 72.4457 177.137C72.7427 175.445 72.699 173.713 72.3171 172.04C71.9351 170.368 71.2224 168.788 70.2197 167.39C69.217 165.992 67.9439 164.803 66.4732 163.893Z" fill="url(#paint7_radial_146_384)"/>
<path d="M112.104 206.384C111.323 204.982 110.268 203.747 108.999 202.751C107.731 201.755 106.274 201.017 104.711 200.578C103.149 200.139 101.512 200.009 99.8938 200.195C98.2756 200.381 96.708 200.879 95.2805 201.661L92.6287 203.112C92.4566 203.206 92.2423 203.146 92.1481 202.977L90.6961 200.374C89.1174 197.543 86.458 195.455 83.3029 194.569C80.1479 193.683 76.7556 194.072 73.8724 195.651C70.9892 197.229 68.8513 199.867 67.9289 202.984C67.0065 206.102 67.3753 209.444 68.954 212.275L82.3113 236.226C82.4055 236.395 82.6198 236.455 82.7919 236.36L107.186 223.008C108.614 222.227 109.874 221.177 110.894 219.919C111.914 218.66 112.674 217.218 113.13 215.674C113.587 214.13 113.732 212.515 113.555 210.921C113.379 209.327 112.886 207.785 112.104 206.384Z" fill="url(#paint8_radial_146_384)"/>
<path d="M101.611 264.117C101.219 263.221 100.651 262.412 99.9395 261.736C99.228 261.059 98.3871 260.528 97.4648 260.174C96.5426 259.819 95.557 259.648 94.5644 259.669C93.5719 259.691 92.5918 259.905 91.6801 260.299L90.1141 260.976C89.9337 261.054 89.7257 260.974 89.648 260.797L88.9739 259.259C88.1812 257.451 86.6896 256.032 84.8271 255.316C82.9646 254.601 80.8839 254.645 79.0426 255.441C77.2014 256.237 75.7504 257.719 75.0089 259.561C74.2674 261.402 74.2962 263.453 75.0888 265.261L81.7404 280.436C81.8181 280.613 82.0261 280.693 82.2065 280.615L97.6575 273.937C98.5694 273.543 99.395 272.976 100.087 272.269C100.779 271.563 101.325 270.73 101.692 269.818C102.059 268.906 102.241 267.933 102.227 266.955C102.213 265.977 102.004 265.012 101.611 264.117Z" fill="url(#paint9_radial_146_384)"/>
<path d="M61.056 257.33C59.5766 256.64 57.9726 256.244 56.3355 256.166C54.6985 256.087 53.0606 256.327 51.5153 256.872C49.97 257.418 48.5477 258.257 47.3295 259.343C46.1114 260.429 45.1213 261.74 44.4158 263.202L43.104 265.917C43.0195 266.092 42.8086 266.167 42.6314 266.084L39.8815 264.802C36.8936 263.408 33.4618 263.244 30.3412 264.345C27.2205 265.446 24.6666 267.722 23.2413 270.673C21.816 273.624 21.6359 277.007 22.7408 280.079C23.8457 283.151 26.1451 285.66 29.133 287.053L54.4147 298.845C54.5919 298.928 54.8028 298.853 54.8873 298.678L66.9476 273.711C67.6538 272.25 68.0615 270.667 68.1476 269.053C68.2337 267.439 67.9964 265.825 67.4492 264.304C66.9021 262.783 66.0559 261.384 64.9589 260.188C63.8619 258.991 62.5357 258.02 61.056 257.33Z" fill="url(#paint10_radial_146_384)"/>
<path d="M79.9997 276.057C79.1081 275.641 78.1413 275.402 77.1546 275.355C76.1679 275.307 75.1807 275.452 74.2492 275.781C73.3178 276.109 72.4604 276.615 71.7262 277.27C70.9919 277.924 70.395 278.714 69.9697 279.595L69.2395 281.106C69.155 281.281 68.9441 281.356 68.7669 281.273L67.2366 280.559C65.4358 279.719 63.3674 279.62 61.4864 280.283C59.6054 280.947 58.066 282.319 57.2067 284.097C56.3474 285.875 56.2387 287.915 56.9044 289.766C57.5702 291.618 58.9559 293.13 60.7568 293.97L75.867 301.02C76.0443 301.102 76.2551 301.028 76.3397 300.853L83.5498 285.93C83.9755 285.05 84.2213 284.096 84.2733 283.123C84.3253 282.15 84.1824 281.178 83.8527 280.261C83.523 279.344 83.013 278.501 82.3519 277.78C81.6908 277.058 80.8915 276.473 79.9997 276.057Z" fill="url(#paint11_radial_146_384)"/>
<path d="M101.61 306.697C101.196 305.816 100.609 305.025 99.8831 304.37C99.1573 303.715 98.3064 303.209 97.3793 302.879C96.4521 302.55 95.4667 302.404 94.4794 302.451C93.4921 302.498 92.5222 302.736 91.6253 303.151L90.0858 303.864C89.9075 303.946 89.6976 303.872 89.6153 303.697L88.9046 302.185C88.0682 300.406 86.5464 299.032 84.674 298.367C82.8016 297.702 80.7319 297.8 78.9202 298.638C77.1086 299.477 75.7034 300.988 75.0138 302.839C74.3242 304.69 74.4066 306.73 75.243 308.509L82.2608 323.437C82.3431 323.612 82.5531 323.687 82.7313 323.604L97.9324 316.568C98.8295 316.153 99.6364 315.568 100.307 314.847C100.977 314.126 101.498 313.284 101.839 312.367C102.181 311.451 102.336 310.478 102.297 309.505C102.258 308.532 102.024 307.578 101.61 306.697Z" fill="url(#paint12_radial_146_384)"/>
</g>
<defs>
<filter id="filter0_d_146_384" x="0.754286" y="0.101637" width="135.485" height="344.807" filterUnits="userSpaceOnUse" color-interpolation-filters="sRGB">
<feFlood flood-opacity="0" result="BackgroundImageFix"/>
<feColorMatrix in="SourceAlpha" type="matrix" values="0 0 0 0 0 0 0 0 0 0 0 0 0 0 0 0 0 0 127 0" result="hardAlpha"/>
<feOffset/>
<feGaussianBlur stdDeviation="10.6354"/>
<feComposite in2="hardAlpha" operator="out"/>
<feColorMatrix type="matrix" values="0 0 0 0 1 0 0 0 0 1 0 0 0 0 1 0 0 0 0.24 0"/>
<feBlend mode="normal" in2="BackgroundImageFix" result="effect1_dropShadow_146_384"/>
<feBlend mode="normal" in="SourceGraphic" in2="effect1_dropShadow_146_384" result="shape"/>
</filter>
<radialGradient id="paint0_radial_146_384" cx="0" cy="0" r="1" gradientUnits="userSpaceOnUse" gradientTransform="translate(51.767 66.45) rotate(69.9795) scale(19.7314 22.9301)">
<stop stop-color="#FF7979"/>
<stop offset="1" stop-color="#FF0000"/>
</radialGradient>
<radialGradient id="paint1_radial_146_384" cx="0" cy="0" r="1" gradientUnits="userSpaceOnUse" gradientTransform="translate(89.9304 44.3065) rotate(110.838) scale(19.8099 22.8392)">
<stop stop-color="#FF7979"/>
<stop offset="1" stop-color="#FF0000"/>
</radialGradient>
<radialGradient id="paint2_radial_146_384" cx="0" cy="0" r="1" gradientUnits="userSpaceOnUse" gradientTransform="translate(80.4135 97.2766) rotate(112.825) scale(12.3498 14.2227)">
<stop stop-color="#FF7979"/>
<stop offset="1" stop-color="#FF0000"/>
</radialGradient>
<radialGradient id="paint3_radial_146_384" cx="0" cy="0" r="1" gradientUnits="userSpaceOnUse" gradientTransform="translate(89.3235 129.122) rotate(114.485) scale(12.3556 14.216)">
<stop stop-color="#FF7979"/>
<stop offset="1" stop-color="#FF0000"/>
</radialGradient>
<radialGradient id="paint4_radial_146_384" cx="0" cy="0" r="1" gradientUnits="userSpaceOnUse" gradientTransform="translate(50.5061 129.332) rotate(62.9797) scale(18.4131 21.3556)">
<stop stop-color="#FF7979"/>
<stop offset="1" stop-color="#FF0000"/>
</radialGradient>
<radialGradient id="paint5_radial_146_384" cx="0" cy="0" r="1" gradientUnits="userSpaceOnUse" gradientTransform="translate(89.8474 167.206) rotate(125.657) scale(12.3975 14.168)">
<stop stop-color="#FF7979"/>
<stop offset="1" stop-color="#FF0000"/>
</radialGradient>
<radialGradient id="paint6_radial_146_384" cx="0" cy="0" r="1" gradientUnits="userSpaceOnUse" gradientTransform="translate(42.3087 236.364) rotate(65.4327) scale(12.3014 14.2787)">
<stop stop-color="#FF7979"/>
<stop offset="1" stop-color="#FF0000"/>
</radialGradient>
<radialGradient id="paint7_radial_146_384" cx="0" cy="0" r="1" gradientUnits="userSpaceOnUse" gradientTransform="translate(49.6688 185.965) rotate(77.1359) scale(21.6452 25.1799)">
<stop stop-color="#FF7979"/>
<stop offset="1" stop-color="#FF0000"/>
</radialGradient>
<radialGradient id="paint8_radial_146_384" cx="0" cy="0" r="1" gradientUnits="userSpaceOnUse" gradientTransform="translate(88.2449 217.052) rotate(106.481) scale(20.3134 23.4722)">
<stop stop-color="#FF7979"/>
<stop offset="1" stop-color="#FF0000"/>
</radialGradient>
<radialGradient id="paint9_radial_146_384" cx="0" cy="0" r="1" gradientUnits="userSpaceOnUse" gradientTransform="translate(86.5137 269.251) rotate(111.932) scale(12.4034 14.2915)">
<stop stop-color="#FF7979"/>
<stop offset="1" stop-color="#FF0000"/>
</radialGradient>
<radialGradient id="paint10_radial_146_384" cx="0" cy="0" r="1" gradientUnits="userSpaceOnUse" gradientTransform="translate(47.8319 279.801) rotate(70.2174) scale(20.3968 23.7045)">
<stop stop-color="#FF7979"/>
<stop offset="1" stop-color="#FF0000"/>
</radialGradient>
<radialGradient id="paint11_radial_146_384" cx="0" cy="0" r="1" gradientUnits="userSpaceOnUse" gradientTransform="translate(72.0277 289.6) rotate(70.2234) scale(12.2938 14.2875)">
<stop stop-color="#FF7979"/>
<stop offset="1" stop-color="#FF0000"/>
</radialGradient>
<radialGradient id="paint12_radial_146_384" cx="0" cy="0" r="1" gradientUnits="userSpaceOnUse" gradientTransform="translate(86.7184 312.188) rotate(110.433) scale(12.3417 14.2321)">
<stop stop-color="#FF7979"/>
<stop offset="1" stop-color="#FF0000"/>
</radialGradient>
</defs>
</svg>
