<svg width="32" height="27" viewBox="0 0 32 27" fill="none" xmlns="http://www.w3.org/2000/svg">
<path d="M27.9598 3.82808C27.27 3.13803 26.4511 2.59064 25.5498 2.21718C24.6485 1.84371 23.6824 1.65149 22.7068 1.65149C21.7311 1.65149 20.765 1.84371 19.8637 2.21718C18.9624 2.59064 18.1435 3.13803 17.4538 3.82808L16.7839 4.49799C16.3633 4.91855 15.6814 4.91855 15.2609 4.49798L14.5909 3.82808C13.1978 2.43489 11.3082 1.65221 9.33795 1.65221C7.36769 1.65221 5.47813 2.43489 4.08495 3.82808C2.69177 5.22126 1.90909 7.11082 1.90909 9.08108C1.90909 11.0513 2.69177 12.9409 4.08495 14.3341L15.2609 25.51C15.6814 25.9306 16.3633 25.9306 16.7839 25.51L27.9598 14.3341C28.6498 13.6444 29.1972 12.8254 29.5707 11.9241C29.9441 11.0228 30.1363 10.0567 30.1363 9.08108C30.1363 8.10544 29.9441 7.13936 29.5707 6.23804C29.1972 5.33671 28.6498 4.51779 27.9598 3.82808Z" stroke="#727371" stroke-width="2" stroke-linecap="round" stroke-linejoin="round"/>
</svg>
