<svg width="24" height="25" viewBox="0 0 24 25" fill="none" xmlns="http://www.w3.org/2000/svg">
<path d="M12 16.7856C12.83 16.7856 13.5 17.4556 13.5 18.2856C13.5 19.1156 12.83 19.7856 12 19.7856C11.17 19.7856 10.5 19.1156 10.5 18.2856C10.5 17.4556 11.17 16.7856 12 16.7856ZM10.5 12.2856C10.5 13.1156 11.17 13.7856 12 13.7856C12.83 13.7856 13.5 13.1156 13.5 12.2856C13.5 11.4556 12.83 10.7856 12 10.7856C11.17 10.7856 10.5 11.4556 10.5 12.2856ZM10.5 6.28564C10.5 7.11564 11.17 7.78564 12 7.78564C12.83 7.78564 13.5 7.11564 13.5 6.28564C13.5 5.45564 12.83 4.78564 12 4.78564C11.17 4.78564 10.5 5.45564 10.5 6.28564Z" fill="white"/>
</svg>
