<svg xmlns="http://www.w3.org/2000/svg" viewBox="0 0 24 24" id="share"><g fill="#000000" class="color000000 svgShape"><path fill="#ffffff" d="M22,12a1,1,0,0,0-1,1v6a2,2,0,0,1-2,2H5a2,2,0,0,1-2-2V5A2,2,0,0,1,5,3h6a1,1,0,0,0,0-2H5A4,4,0,0,0,1,5V19a4,4,0,0,0,4,4H19a4,4,0,0,0,4-4V13A1,1,0,0,0,22,12Z" class="color699efa svgShape"></path><path fill="#ffffff" d="M22.922,1.614a.989.989,0,0,0-.186-.278c-.012-.013-.016-.03-.029-.043s-.03-.017-.043-.029A.939.939,0,0,0,22,1H16a1,1,0,0,0,0,2h3.586l-7.293,7.293a1,1,0,1,0,1.414,1.414L21,4.414V8a1,1,0,0,0,2,0V2A.99.99,0,0,0,22.922,1.614Z" class="color699efa svgShape"></path></g></svg>