<svg width="32" height="32" viewBox="0 0 32 32" fill="none" xmlns="http://www.w3.org/2000/svg">
<circle cx="16" cy="16" r="15" stroke="white" stroke-width="2"/>
<path opacity="0.12" d="M21.4142 10.5858C22.1953 11.3668 22.1953 12.6332 21.4142 13.4142C20.6332 14.1953 19.3668 14.1953 18.5858 13.4142C17.8047 12.6332 17.8047 11.3668 18.5858 10.5858C19.3668 9.80474 20.6332 9.80474 21.4142 10.5858Z" fill="white"/>
<path d="M15.3333 10.6667H13.2C12.0799 10.6667 11.5198 10.6667 11.092 10.8847C10.7157 11.0764 10.4097 11.3824 10.218 11.7587C10 12.1865 10 12.7466 10 13.8667V17.3333C10 17.9533 10 18.2633 10.0681 18.5176C10.2531 19.2078 10.7922 19.7469 11.4824 19.9319C11.7367 20 12.0467 20 12.6667 20V21.557C12.6667 21.9122 12.6667 22.0899 12.7395 22.1811C12.8028 22.2604 12.8988 22.3066 13.0004 22.3065C13.1171 22.3063 13.2558 22.1954 13.5332 21.9735L15.1235 20.7012C15.4483 20.4413 15.6108 20.3114 15.7917 20.219C15.9521 20.137 16.123 20.0771 16.2995 20.0408C16.4984 20 16.7065 20 17.1225 20H18.1333C19.2534 20 19.8135 20 20.2413 19.782C20.6176 19.5903 20.9236 19.2843 21.1153 18.908C21.3333 18.4802 21.3333 17.9201 21.3333 16.8V16.6667M21.4142 10.5858C22.1953 11.3668 22.1953 12.6332 21.4142 13.4142C20.6332 14.1953 19.3668 14.1953 18.5858 13.4142C17.8047 12.6332 17.8047 11.3668 18.5858 10.5858C19.3668 9.80474 20.6332 9.80474 21.4142 10.5858Z" stroke="white" stroke-width="2" stroke-linecap="round" stroke-linejoin="round"/>
</svg>
