<svg width="34" height="33" viewBox="0 0 34 33" fill="none" xmlns="http://www.w3.org/2000/svg">
<path d="M26.625 15.125H7.375C5.85622 15.125 4.625 16.3562 4.625 17.875V27.5C4.625 29.0188 5.85622 30.25 7.375 30.25H26.625C28.1438 30.25 29.375 29.0188 29.375 27.5V17.875C29.375 16.3562 28.1438 15.125 26.625 15.125Z" stroke="white" stroke-width="3" stroke-linecap="round" stroke-linejoin="round"/>
<path d="M10.125 15.125V9.625C10.1233 7.92006 10.7551 6.27531 11.8979 5.01004C13.0406 3.74476 14.6128 2.94924 16.3091 2.77789C18.0054 2.60655 19.7048 3.07161 21.0775 4.0828C22.4502 5.09399 23.875 7.5625 23.875 9.625V15.125" stroke="white" stroke-width="3" stroke-linecap="round" stroke-linejoin="round"/>
</svg>
