<svg width="36" height="36" viewBox="0 0 36 36" fill="none" xmlns="http://www.w3.org/2000/svg">
<path d="M11.25 18C11.25 19.245 10.245 20.25 9 20.25C7.755 20.25 6.75 19.245 6.75 18C6.75 16.755 7.755 15.75 9 15.75C10.245 15.75 11.25 16.755 11.25 18ZM18 15.75C16.755 15.75 15.75 16.755 15.75 18C15.75 19.245 16.755 20.25 18 20.25C19.245 20.25 20.25 19.245 20.25 18C20.25 16.755 19.245 15.75 18 15.75ZM27 15.75C25.755 15.75 24.75 16.755 24.75 18C24.75 19.245 25.755 20.25 27 20.25C28.245 20.25 29.25 19.245 29.25 18C29.25 16.755 28.245 15.75 27 15.75Z" fill="white"/>
</svg>
