<svg width="36" height="36" viewBox="0 0 36 36" fill="none" xmlns="http://www.w3.org/2000/svg">
<path fill-rule="evenodd" clip-rule="evenodd" d="M5.69822 2.76923C4.08058 2.76923 2.76923 4.08098 2.76923 5.69911V24.4504C2.76923 26.0685 4.08058 27.3802 5.69822 27.3802H25.6154L30.5916 32.7409C31.5335 33.7555 33.2308 33.0888 33.2308 31.7042V27.3802V5.69911C33.2308 4.08098 31.9194 2.76923 30.3018 2.76923H5.69822ZM8.62721 11.5589C8.62721 10.588 9.41402 9.80094 10.3846 9.80094H25.6154C26.5859 9.80094 27.3728 10.588 27.3728 11.5589C27.3728 12.5297 26.5859 13.3168 25.6154 13.3168H10.3846C9.41402 13.3168 8.62721 12.5297 8.62721 11.5589ZM8.62721 18.5906C8.62721 17.6197 9.41402 16.8327 10.3846 16.8327H20.929C21.8995 16.8327 22.6864 17.6197 22.6864 18.5906C22.6864 19.5614 21.8995 20.3485 20.929 20.3485H10.3846C9.41402 20.3485 8.62721 19.5614 8.62721 18.5906Z" fill="white"/>
</svg>
